<svg xmlns="http://www.w3.org/2000/svg" version="1.1" xmlns:xlink="http://www.w3.org/1999/xlink" xmlns:svgjs="http://svgjs.com/svgjs" width="1920" height="1920" preserveAspectRatio="none" viewBox="0 0 1920 1920"><g mask="url(&quot;#SvgjsMask1078&quot;)" fill="none"><g mask="url(&quot;#SvgjsMask1079&quot;)"><path d="M825 1625L575 1375L25 1375" stroke-width="8.33" stroke="rgba(27, 150, 243, 0.08)"></path><path d="M812.5 1625 a12.5 12.5 0 1 0 25 0 a12.5 12.5 0 1 0 -25 0zM12.5 1375 a12.5 12.5 0 1 0 25 0 a12.5 12.5 0 1 0 -25 0z" fill="rgba(27, 150, 243, 0.08)"></path><path d="M625 25L1525 925L1575 925" stroke-width="8.33" stroke="rgba(27, 150, 243, 0.08)"></path><path d="M612.5 25 a12.5 12.5 0 1 0 25 0 a12.5 12.5 0 1 0 -25 0zM1562.5 925 a12.5 12.5 0 1 0 25 0 a12.5 12.5 0 1 0 -25 0z" fill="rgba(27, 150, 243, 0.08)"></path><path d="M325 1825L425 1725L425 1525L325 1425L25 1425" stroke-width="8.33" stroke="rgba(27, 150, 243, 0.08)"></path><path d="M312.5 1825 a12.5 12.5 0 1 0 25 0 a12.5 12.5 0 1 0 -25 0zM12.5 1425 a12.5 12.5 0 1 0 25 0 a12.5 12.5 0 1 0 -25 0z" fill="rgba(27, 150, 243, 0.08)"></path><path d="M525 1575L625 1475" stroke-width="8.33" stroke="rgba(27, 150, 243, 0.08)"></path><path d="M512.5 1575 a12.5 12.5 0 1 0 25 0 a12.5 12.5 0 1 0 -25 0zM612.5 1475 a12.5 12.5 0 1 0 25 0 a12.5 12.5 0 1 0 -25 0z" fill="rgba(27, 150, 243, 0.08)"></path><path d="M1325 125L1425 25L1925 25" stroke-width="8.33" stroke="rgba(27, 150, 243, 0.08)"></path><path d="M1312.5 125 a12.5 12.5 0 1 0 25 0 a12.5 12.5 0 1 0 -25 0zM1912.5 25 a12.5 12.5 0 1 0 25 0 a12.5 12.5 0 1 0 -25 0z" fill="rgba(27, 150, 243, 0.08)"></path><path d="M125 1525L175 1475L325 1475L375 1525L375 1725L175 1925L25 1925" stroke-width="8.33" stroke="rgba(27, 150, 243, 0.08)"></path><path d="M112.5 1525 a12.5 12.5 0 1 0 25 0 a12.5 12.5 0 1 0 -25 0zM12.5 1925 a12.5 12.5 0 1 0 25 0 a12.5 12.5 0 1 0 -25 0z" fill="rgba(27, 150, 243, 0.08)"></path><path d="M1125 475L1075 425L1075 25" stroke-width="8.33" stroke="rgba(27, 150, 243, 0.08)"></path><path d="M1112.5 475 a12.5 12.5 0 1 0 25 0 a12.5 12.5 0 1 0 -25 0zM1062.5 25 a12.5 12.5 0 1 0 25 0 a12.5 12.5 0 1 0 -25 0z" fill="rgba(27, 150, 243, 0.08)"></path><path d="M775 1275L1425 1925L1725 1925" stroke-width="8.33" stroke="rgba(27, 150, 243, 0.08)"></path><path d="M762.5 1275 a12.5 12.5 0 1 0 25 0 a12.5 12.5 0 1 0 -25 0zM1712.5 1925 a12.5 12.5 0 1 0 25 0 a12.5 12.5 0 1 0 -25 0z" fill="rgba(27, 150, 243, 0.08)"></path><path d="M625 675L475 825L475 1325" stroke-width="8.33" stroke="rgba(27, 150, 243, 0.08)"></path><path d="M612.5 675 a12.5 12.5 0 1 0 25 0 a12.5 12.5 0 1 0 -25 0zM462.5 1325 a12.5 12.5 0 1 0 25 0 a12.5 12.5 0 1 0 -25 0z" fill="rgba(27, 150, 243, 0.08)"></path><path d="M875 1275L875 1325L1425 1875L1775 1875" stroke-width="8.33" stroke="rgba(27, 150, 243, 0.08)"></path><path d="M862.5 1275 a12.5 12.5 0 1 0 25 0 a12.5 12.5 0 1 0 -25 0zM1762.5 1875 a12.5 12.5 0 1 0 25 0 a12.5 12.5 0 1 0 -25 0z" fill="rgba(27, 150, 243, 0.08)"></path><path d="M925 175L925 225L1025 325L1025 375" stroke-width="8.33" stroke="rgba(27, 150, 243, 0.08)"></path><path d="M912.5 175 a12.5 12.5 0 1 0 25 0 a12.5 12.5 0 1 0 -25 0zM1012.5 375 a12.5 12.5 0 1 0 25 0 a12.5 12.5 0 1 0 -25 0z" fill="rgba(27, 150, 243, 0.08)"></path><path d="M1375 275L1175 475L1175 525" stroke-width="8.33" stroke="rgba(27, 150, 243, 0.08)"></path><path d="M1362.5 275 a12.5 12.5 0 1 0 25 0 a12.5 12.5 0 1 0 -25 0zM1162.5 525 a12.5 12.5 0 1 0 25 0 a12.5 12.5 0 1 0 -25 0z" fill="rgba(27, 150, 243, 0.08)"></path><path d="M1125 1825L475 1825L375 1925L225 1925" stroke-width="8.33" stroke="rgba(27, 150, 243, 0.08)"></path><path d="M1112.5 1825 a12.5 12.5 0 1 0 25 0 a12.5 12.5 0 1 0 -25 0zM212.5 1925 a12.5 12.5 0 1 0 25 0 a12.5 12.5 0 1 0 -25 0z" fill="rgba(27, 150, 243, 0.08)"></path><path d="M275 275L25 25" stroke-width="8.33" stroke="rgba(27, 150, 243, 0.08)"></path><path d="M262.5 275 a12.5 12.5 0 1 0 25 0 a12.5 12.5 0 1 0 -25 0zM12.5 25 a12.5 12.5 0 1 0 25 0 a12.5 12.5 0 1 0 -25 0z" fill="rgba(27, 150, 243, 0.08)"></path><path d="M875 1625L1025 1775L1225 1775L1375 1925" stroke-width="8.33" stroke="rgba(27, 150, 243, 0.08)"></path><path d="M862.5 1625 a12.5 12.5 0 1 0 25 0 a12.5 12.5 0 1 0 -25 0zM1362.5 1925 a12.5 12.5 0 1 0 25 0 a12.5 12.5 0 1 0 -25 0z" fill="rgba(27, 150, 243, 0.08)"></path><path d="M175 575L775 575L1075 875L1075 925" stroke-width="8.33" stroke="rgba(27, 150, 243, 0.08)"></path><path d="M162.5 575 a12.5 12.5 0 1 0 25 0 a12.5 12.5 0 1 0 -25 0zM1062.5 925 a12.5 12.5 0 1 0 25 0 a12.5 12.5 0 1 0 -25 0z" fill="rgba(27, 150, 243, 0.08)"></path><path d="M975 975L1275 1275L1925 1275" stroke-width="8.33" stroke="rgba(27, 150, 243, 0.08)"></path><path d="M962.5 975 a12.5 12.5 0 1 0 25 0 a12.5 12.5 0 1 0 -25 0zM1912.5 1275 a12.5 12.5 0 1 0 25 0 a12.5 12.5 0 1 0 -25 0z" fill="rgba(27, 150, 243, 0.08)"></path><path d="M675 125L575 25L75 25" stroke-width="8.33" stroke="rgba(27, 150, 243, 0.08)"></path><path d="M662.5 125 a12.5 12.5 0 1 0 25 0 a12.5 12.5 0 1 0 -25 0zM62.5 25 a12.5 12.5 0 1 0 25 0 a12.5 12.5 0 1 0 -25 0z" fill="rgba(27, 150, 243, 0.08)"></path><path d="M1575 525L1525 575L1525 875" stroke-width="8.33" stroke="rgba(27, 150, 243, 0.08)"></path><path d="M1562.5 525 a12.5 12.5 0 1 0 25 0 a12.5 12.5 0 1 0 -25 0zM1512.5 875 a12.5 12.5 0 1 0 25 0 a12.5 12.5 0 1 0 -25 0z" fill="rgba(27, 150, 243, 0.08)"></path><path d="M1125 875L1475 1225L1925 1225" stroke-width="8.33" stroke="rgba(27, 150, 243, 0.08)"></path><path d="M1112.5 875 a12.5 12.5 0 1 0 25 0 a12.5 12.5 0 1 0 -25 0zM1912.5 1225 a12.5 12.5 0 1 0 25 0 a12.5 12.5 0 1 0 -25 0z" fill="rgba(27, 150, 243, 0.08)"></path><path d="M1825 675L1575 675" stroke-width="8.33" stroke="rgba(27, 150, 243, 0.08)"></path><path d="M1812.5 675 a12.5 12.5 0 1 0 25 0 a12.5 12.5 0 1 0 -25 0zM1562.5 675 a12.5 12.5 0 1 0 25 0 a12.5 12.5 0 1 0 -25 0z" fill="rgba(27, 150, 243, 0.08)"></path><path d="M1575 1325L925 1325" stroke-width="8.33" stroke="rgba(27, 150, 243, 0.08)"></path><path d="M1562.5 1325 a12.5 12.5 0 1 0 25 0 a12.5 12.5 0 1 0 -25 0zM912.5 1325 a12.5 12.5 0 1 0 25 0 a12.5 12.5 0 1 0 -25 0z" fill="rgba(27, 150, 243, 0.08)"></path><path d="M1275 1225L675 625L325 625" stroke-width="8.33" stroke="rgba(27, 150, 243, 0.08)"></path><path d="M1262.5 1225 a12.5 12.5 0 1 0 25 0 a12.5 12.5 0 1 0 -25 0zM312.5 625 a12.5 12.5 0 1 0 25 0 a12.5 12.5 0 1 0 -25 0z" fill="rgba(27, 150, 243, 0.08)"></path><path d="M1525 175L1675 175L1925 425L1925 925L1875 975" stroke-width="8.33" stroke="rgba(27, 150, 243, 0.08)"></path><path d="M1512.5 175 a12.5 12.5 0 1 0 25 0 a12.5 12.5 0 1 0 -25 0zM1862.5 975 a12.5 12.5 0 1 0 25 0 a12.5 12.5 0 1 0 -25 0z" fill="rgba(27, 150, 243, 0.08)"></path><path d="M575 775L775 775L925 925L925 1025L1175 1275L1225 1275" stroke-width="8.33" stroke="rgba(27, 150, 243, 0.08)"></path><path d="M562.5 775 a12.5 12.5 0 1 0 25 0 a12.5 12.5 0 1 0 -25 0zM1212.5 1275 a12.5 12.5 0 1 0 25 0 a12.5 12.5 0 1 0 -25 0z" fill="rgba(27, 150, 243, 0.08)"></path><path d="M475 475L1025 475L1425 875" stroke-width="8.33" stroke="rgba(27, 150, 243, 0.08)"></path><path d="M462.5 475 a12.5 12.5 0 1 0 25 0 a12.5 12.5 0 1 0 -25 0zM1412.5 875 a12.5 12.5 0 1 0 25 0 a12.5 12.5 0 1 0 -25 0z" fill="rgba(27, 150, 243, 0.08)"></path><path d="M1825 775L1775 725L1575 725" stroke-width="8.33" stroke="rgba(27, 150, 243, 0.08)"></path><path d="M1812.5 775 a12.5 12.5 0 1 0 25 0 a12.5 12.5 0 1 0 -25 0zM1562.5 725 a12.5 12.5 0 1 0 25 0 a12.5 12.5 0 1 0 -25 0z" fill="rgba(27, 150, 243, 0.08)"></path><path d="M825 325L825 275L725 175L675 175L325 525L225 525L25 325L25 225" stroke-width="8.33" stroke="rgba(27, 150, 243, 0.08)"></path><path d="M812.5 325 a12.5 12.5 0 1 0 25 0 a12.5 12.5 0 1 0 -25 0zM12.5 225 a12.5 12.5 0 1 0 25 0 a12.5 12.5 0 1 0 -25 0z" fill="rgba(27, 150, 243, 0.08)"></path><path d="M625 125L575 75L125 75" stroke-width="8.33" stroke="rgba(27, 150, 243, 0.08)"></path><path d="M612.5 125 a12.5 12.5 0 1 0 25 0 a12.5 12.5 0 1 0 -25 0zM112.5 75 a12.5 12.5 0 1 0 25 0 a12.5 12.5 0 1 0 -25 0z" fill="rgba(27, 150, 243, 0.08)"></path><path d="M1175 175L1325 25L1375 25" stroke-width="8.33" stroke="rgba(27, 150, 243, 0.08)"></path><path d="M1162.5 175 a12.5 12.5 0 1 0 25 0 a12.5 12.5 0 1 0 -25 0zM1362.5 25 a12.5 12.5 0 1 0 25 0 a12.5 12.5 0 1 0 -25 0z" fill="rgba(27, 150, 243, 0.08)"></path><path d="M875 1125L575 1125L525 1075L525 825" stroke-width="8.33" stroke="rgba(27, 150, 243, 0.08)"></path><path d="M862.5 1125 a12.5 12.5 0 1 0 25 0 a12.5 12.5 0 1 0 -25 0zM512.5 825 a12.5 12.5 0 1 0 25 0 a12.5 12.5 0 1 0 -25 0z" fill="rgba(27, 150, 243, 0.08)"></path><path d="M475 1425L575 1425" stroke-width="8.33" stroke="rgba(27, 150, 243, 0.08)"></path><path d="M462.5 1425 a12.5 12.5 0 1 0 25 0 a12.5 12.5 0 1 0 -25 0zM562.5 1425 a12.5 12.5 0 1 0 25 0 a12.5 12.5 0 1 0 -25 0z" fill="rgba(27, 150, 243, 0.08)"></path><path d="M1575 375L1325 375L1225 475L1225 525L1325 625L1475 625" stroke-width="8.33" stroke="rgba(27, 150, 243, 0.08)"></path><path d="M1562.5 375 a12.5 12.5 0 1 0 25 0 a12.5 12.5 0 1 0 -25 0zM1462.5 625 a12.5 12.5 0 1 0 25 0 a12.5 12.5 0 1 0 -25 0z" fill="rgba(27, 150, 243, 0.08)"></path><path d="M1675 1825L1925 1825" stroke-width="8.33" stroke="rgba(27, 150, 243, 0.08)"></path><path d="M1662.5 1825 a12.5 12.5 0 1 0 25 0 a12.5 12.5 0 1 0 -25 0zM1912.5 1825 a12.5 12.5 0 1 0 25 0 a12.5 12.5 0 1 0 -25 0z" fill="rgba(27, 150, 243, 0.08)"></path><path d="M1275 325L1175 425L1125 425" stroke-width="8.33" stroke="rgba(27, 150, 243, 0.08)"></path><path d="M1262.5 325 a12.5 12.5 0 1 0 25 0 a12.5 12.5 0 1 0 -25 0zM1112.5 425 a12.5 12.5 0 1 0 25 0 a12.5 12.5 0 1 0 -25 0z" fill="rgba(27, 150, 243, 0.08)"></path><path d="M1175 1925L575 1925L525 1875L475 1875L425 1925" stroke-width="8.33" stroke="rgba(27, 150, 243, 0.08)"></path><path d="M1162.5 1925 a12.5 12.5 0 1 0 25 0 a12.5 12.5 0 1 0 -25 0zM412.5 1925 a12.5 12.5 0 1 0 25 0 a12.5 12.5 0 1 0 -25 0z" fill="rgba(27, 150, 243, 0.08)"></path><path d="M925 25L1025 25" stroke-width="8.33" stroke="rgba(27, 150, 243, 0.08)"></path><path d="M912.5 25 a12.5 12.5 0 1 0 25 0 a12.5 12.5 0 1 0 -25 0zM1012.5 25 a12.5 12.5 0 1 0 25 0 a12.5 12.5 0 1 0 -25 0z" fill="rgba(27, 150, 243, 0.08)"></path><path d="M1825 1625L1875 1675L1925 1675" stroke-width="8.33" stroke="rgba(27, 150, 243, 0.08)"></path><path d="M1812.5 1625 a12.5 12.5 0 1 0 25 0 a12.5 12.5 0 1 0 -25 0zM1912.5 1675 a12.5 12.5 0 1 0 25 0 a12.5 12.5 0 1 0 -25 0z" fill="rgba(27, 150, 243, 0.08)"></path><path d="M225 125L225 175L425 375" stroke-width="8.33" stroke="rgba(27, 150, 243, 0.08)"></path><path d="M212.5 125 a12.5 12.5 0 1 0 25 0 a12.5 12.5 0 1 0 -25 0zM412.5 375 a12.5 12.5 0 1 0 25 0 a12.5 12.5 0 1 0 -25 0z" fill="rgba(27, 150, 243, 0.08)"></path><path d="M925 1525L975 1525L1175 1725" stroke-width="8.33" stroke="rgba(27, 150, 243, 0.08)"></path><path d="M912.5 1525 a12.5 12.5 0 1 0 25 0 a12.5 12.5 0 1 0 -25 0zM1162.5 1725 a12.5 12.5 0 1 0 25 0 a12.5 12.5 0 1 0 -25 0z" fill="rgba(27, 150, 243, 0.08)"></path><path d="M725 1725L675 1775L425 1775L375 1825L375 1875" stroke-width="8.33" stroke="rgba(27, 150, 243, 0.08)"></path><path d="M712.5 1725 a12.5 12.5 0 1 0 25 0 a12.5 12.5 0 1 0 -25 0zM362.5 1875 a12.5 12.5 0 1 0 25 0 a12.5 12.5 0 1 0 -25 0z" fill="rgba(27, 150, 243, 0.08)"></path><path d="M1075 625L875 625L775 525L375 525" stroke-width="8.33" stroke="rgba(27, 150, 243, 0.08)"></path><path d="M1062.5 625 a12.5 12.5 0 1 0 25 0 a12.5 12.5 0 1 0 -25 0zM362.5 525 a12.5 12.5 0 1 0 25 0 a12.5 12.5 0 1 0 -25 0z" fill="rgba(27, 150, 243, 0.08)"></path><path d="M1825 625L1875 675L1875 925L1625 1175L1475 1175L1275 975L1275 925" stroke-width="8.33" stroke="rgba(27, 150, 243, 0.08)"></path><path d="M1812.5 625 a12.5 12.5 0 1 0 25 0 a12.5 12.5 0 1 0 -25 0zM1262.5 925 a12.5 12.5 0 1 0 25 0 a12.5 12.5 0 1 0 -25 0z" fill="rgba(27, 150, 243, 0.08)"></path><path d="M25 575L125 575L275 725L525 725L575 675" stroke-width="8.33" stroke="rgba(27, 150, 243, 0.08)"></path><path d="M12.5 575 a12.5 12.5 0 1 0 25 0 a12.5 12.5 0 1 0 -25 0zM562.5 675 a12.5 12.5 0 1 0 25 0 a12.5 12.5 0 1 0 -25 0z" fill="rgba(27, 150, 243, 0.08)"></path><path d="M1875 275L1875 325L1925 375" stroke-width="8.33" stroke="rgba(27, 150, 243, 0.08)"></path><path d="M1862.5 275 a12.5 12.5 0 1 0 25 0 a12.5 12.5 0 1 0 -25 0zM1912.5 375 a12.5 12.5 0 1 0 25 0 a12.5 12.5 0 1 0 -25 0z" fill="rgba(27, 150, 243, 0.08)"></path><path d="M1425 1725L1425 1375" stroke-width="8.33" stroke="rgba(27, 150, 243, 0.08)"></path><path d="M1412.5 1725 a12.5 12.5 0 1 0 25 0 a12.5 12.5 0 1 0 -25 0zM1412.5 1375 a12.5 12.5 0 1 0 25 0 a12.5 12.5 0 1 0 -25 0z" fill="rgba(27, 150, 243, 0.08)"></path><path d="M575 1675L475 1675" stroke-width="8.33" stroke="rgba(27, 150, 243, 0.08)"></path><path d="M562.5 1675 a12.5 12.5 0 1 0 25 0 a12.5 12.5 0 1 0 -25 0zM462.5 1675 a12.5 12.5 0 1 0 25 0 a12.5 12.5 0 1 0 -25 0z" fill="rgba(27, 150, 243, 0.08)"></path><path d="M825 725L875 725L1025 875L1025 925" stroke-width="8.33" stroke="rgba(27, 150, 243, 0.08)"></path><path d="M812.5 725 a12.5 12.5 0 1 0 25 0 a12.5 12.5 0 1 0 -25 0zM1012.5 925 a12.5 12.5 0 1 0 25 0 a12.5 12.5 0 1 0 -25 0z" fill="rgba(27, 150, 243, 0.08)"></path><path d="M225 775L475 775" stroke-width="8.33" stroke="rgba(27, 150, 243, 0.08)"></path><path d="M212.5 775 a12.5 12.5 0 1 0 25 0 a12.5 12.5 0 1 0 -25 0zM462.5 775 a12.5 12.5 0 1 0 25 0 a12.5 12.5 0 1 0 -25 0z" fill="rgba(27, 150, 243, 0.08)"></path><path d="M1575 1825L1575 1525L1675 1425L1675 1325" stroke-width="8.33" stroke="rgba(27, 150, 243, 0.08)"></path><path d="M1562.5 1825 a12.5 12.5 0 1 0 25 0 a12.5 12.5 0 1 0 -25 0zM1662.5 1325 a12.5 12.5 0 1 0 25 0 a12.5 12.5 0 1 0 -25 0z" fill="rgba(27, 150, 243, 0.08)"></path><path d="M1675 225L1875 425L1875 625" stroke-width="8.33" stroke="rgba(27, 150, 243, 0.08)"></path><path d="M1662.5 225 a12.5 12.5 0 1 0 25 0 a12.5 12.5 0 1 0 -25 0zM1862.5 625 a12.5 12.5 0 1 0 25 0 a12.5 12.5 0 1 0 -25 0z" fill="rgba(27, 150, 243, 0.08)"></path><path d="M1375 1675L1075 1375L975 1375" stroke-width="8.33" stroke="rgba(27, 150, 243, 0.08)"></path><path d="M1362.5 1675 a12.5 12.5 0 1 0 25 0 a12.5 12.5 0 1 0 -25 0zM962.5 1375 a12.5 12.5 0 1 0 25 0 a12.5 12.5 0 1 0 -25 0z" fill="rgba(27, 150, 243, 0.08)"></path><path d="M875 1675L725 1675L675 1625L475 1625" stroke-width="8.33" stroke="rgba(27, 150, 243, 0.08)"></path><path d="M862.5 1675 a12.5 12.5 0 1 0 25 0 a12.5 12.5 0 1 0 -25 0zM462.5 1625 a12.5 12.5 0 1 0 25 0 a12.5 12.5 0 1 0 -25 0z" fill="rgba(27, 150, 243, 0.08)"></path><path d="M1775 225L1925 225" stroke-width="8.33" stroke="rgba(27, 150, 243, 0.08)"></path><path d="M1762.5 225 a12.5 12.5 0 1 0 25 0 a12.5 12.5 0 1 0 -25 0zM1912.5 225 a12.5 12.5 0 1 0 25 0 a12.5 12.5 0 1 0 -25 0z" fill="rgba(27, 150, 243, 0.08)"></path><path d="M1725 1325L1725 1525L1775 1575L1925 1575" stroke-width="8.33" stroke="rgba(27, 150, 243, 0.08)"></path><path d="M1712.5 1325 a12.5 12.5 0 1 0 25 0 a12.5 12.5 0 1 0 -25 0zM1912.5 1575 a12.5 12.5 0 1 0 25 0 a12.5 12.5 0 1 0 -25 0z" fill="rgba(27, 150, 243, 0.08)"></path><path d="M775 1875L1275 1875L1325 1925" stroke-width="8.33" stroke="rgba(27, 150, 243, 0.08)"></path><path d="M762.5 1875 a12.5 12.5 0 1 0 25 0 a12.5 12.5 0 1 0 -25 0zM1312.5 1925 a12.5 12.5 0 1 0 25 0 a12.5 12.5 0 1 0 -25 0z" fill="rgba(27, 150, 243, 0.08)"></path><path d="M1675 1625L1625 1675L1625 1825" stroke-width="8.33" stroke="rgba(27, 150, 243, 0.08)"></path><path d="M1662.5 1625 a12.5 12.5 0 1 0 25 0 a12.5 12.5 0 1 0 -25 0zM1612.5 1825 a12.5 12.5 0 1 0 25 0 a12.5 12.5 0 1 0 -25 0z" fill="rgba(27, 150, 243, 0.08)"></path><path d="M75 225L75 325L225 475L325 475L375 425L375 375L325 325L125 325" stroke-width="8.33" stroke="rgba(27, 150, 243, 0.08)"></path><path d="M62.5 225 a12.5 12.5 0 1 0 25 0 a12.5 12.5 0 1 0 -25 0zM112.5 325 a12.5 12.5 0 1 0 25 0 a12.5 12.5 0 1 0 -25 0z" fill="rgba(27, 150, 243, 0.08)"></path><path d="M725 1075L575 1075" stroke-width="8.33" stroke="rgba(27, 150, 243, 0.08)"></path><path d="M712.5 1075 a12.5 12.5 0 1 0 25 0 a12.5 12.5 0 1 0 -25 0zM562.5 1075 a12.5 12.5 0 1 0 25 0 a12.5 12.5 0 1 0 -25 0z" fill="rgba(27, 150, 243, 0.08)"></path><path d="M1425 275L1475 325L1725 325L1825 425L1825 575L1775 625L1675 625" stroke-width="8.33" stroke="rgba(27, 150, 243, 0.08)"></path><path d="M1412.5 275 a12.5 12.5 0 1 0 25 0 a12.5 12.5 0 1 0 -25 0zM1662.5 625 a12.5 12.5 0 1 0 25 0 a12.5 12.5 0 1 0 -25 0z" fill="rgba(27, 150, 243, 0.08)"></path><path d="M275 1275L275 825" stroke-width="8.33" stroke="rgba(27, 150, 243, 0.08)"></path><path d="M262.5 1275 a12.5 12.5 0 1 0 25 0 a12.5 12.5 0 1 0 -25 0zM262.5 825 a12.5 12.5 0 1 0 25 0 a12.5 12.5 0 1 0 -25 0z" fill="rgba(27, 150, 243, 0.08)"></path><path d="M625 1375L775 1525L875 1525L1075 1725L1125 1725" stroke-width="8.33" stroke="rgba(27, 150, 243, 0.08)"></path><path d="M612.5 1375 a12.5 12.5 0 1 0 25 0 a12.5 12.5 0 1 0 -25 0zM1112.5 1725 a12.5 12.5 0 1 0 25 0 a12.5 12.5 0 1 0 -25 0z" fill="rgba(27, 150, 243, 0.08)"></path><path d="M775 825L575 825" stroke-width="8.33" stroke="rgba(27, 150, 243, 0.08)"></path><path d="M762.5 825 a12.5 12.5 0 1 0 25 0 a12.5 12.5 0 1 0 -25 0zM562.5 825 a12.5 12.5 0 1 0 25 0 a12.5 12.5 0 1 0 -25 0z" fill="rgba(27, 150, 243, 0.08)"></path><path d="M325 1325L75 1325L25 1275L25 925L225 725" stroke-width="8.33" stroke="rgba(27, 150, 243, 0.08)"></path><path d="M312.5 1325 a12.5 12.5 0 1 0 25 0 a12.5 12.5 0 1 0 -25 0zM212.5 725 a12.5 12.5 0 1 0 25 0 a12.5 12.5 0 1 0 -25 0z" fill="rgba(27, 150, 243, 0.08)"></path><path d="M1125 375L1125 175" stroke-width="8.33" stroke="rgba(27, 150, 243, 0.08)"></path><path d="M1112.5 375 a12.5 12.5 0 1 0 25 0 a12.5 12.5 0 1 0 -25 0zM1112.5 175 a12.5 12.5 0 1 0 25 0 a12.5 12.5 0 1 0 -25 0z" fill="rgba(27, 150, 243, 0.08)"></path><path d="M725 1325L725 1425L775 1475L925 1475" stroke-width="8.33" stroke="rgba(27, 150, 243, 0.08)"></path><path d="M712.5 1325 a12.5 12.5 0 1 0 25 0 a12.5 12.5 0 1 0 -25 0zM912.5 1475 a12.5 12.5 0 1 0 25 0 a12.5 12.5 0 1 0 -25 0z" fill="rgba(27, 150, 243, 0.08)"></path><path d="M875 1025L875 925L825 875L575 875" stroke-width="8.33" stroke="rgba(27, 150, 243, 0.08)"></path><path d="M862.5 1025 a12.5 12.5 0 1 0 25 0 a12.5 12.5 0 1 0 -25 0zM562.5 875 a12.5 12.5 0 1 0 25 0 a12.5 12.5 0 1 0 -25 0z" fill="rgba(27, 150, 243, 0.08)"></path><path d="M1625 75L1725 175L1825 175L1925 75" stroke-width="8.33" stroke="rgba(27, 150, 243, 0.08)"></path><path d="M1612.5 75 a12.5 12.5 0 1 0 25 0 a12.5 12.5 0 1 0 -25 0zM1912.5 75 a12.5 12.5 0 1 0 25 0 a12.5 12.5 0 1 0 -25 0z" fill="rgba(27, 150, 243, 0.08)"></path><path d="M475 1475L425 1475L375 1425" stroke-width="8.33" stroke="rgba(27, 150, 243, 0.08)"></path><path d="M462.5 1475 a12.5 12.5 0 1 0 25 0 a12.5 12.5 0 1 0 -25 0zM362.5 1425 a12.5 12.5 0 1 0 25 0 a12.5 12.5 0 1 0 -25 0z" fill="rgba(27, 150, 243, 0.08)"></path><path d="M1325 425L1475 575" stroke-width="8.33" stroke="rgba(27, 150, 243, 0.08)"></path><path d="M1312.5 425 a12.5 12.5 0 1 0 25 0 a12.5 12.5 0 1 0 -25 0zM1462.5 575 a12.5 12.5 0 1 0 25 0 a12.5 12.5 0 1 0 -25 0z" fill="rgba(27, 150, 243, 0.08)"></path><path d="M725 925L725 1025L775 1075L925 1075L1125 1275" stroke-width="8.33" stroke="rgba(27, 150, 243, 0.08)"></path><path d="M712.5 925 a12.5 12.5 0 1 0 25 0 a12.5 12.5 0 1 0 -25 0zM1112.5 1275 a12.5 12.5 0 1 0 25 0 a12.5 12.5 0 1 0 -25 0z" fill="rgba(27, 150, 243, 0.08)"></path><path d="M625 1175L525 1175" stroke-width="8.33" stroke="rgba(27, 150, 243, 0.08)"></path><path d="M612.5 1175 a12.5 12.5 0 1 0 25 0 a12.5 12.5 0 1 0 -25 0zM512.5 1175 a12.5 12.5 0 1 0 25 0 a12.5 12.5 0 1 0 -25 0z" fill="rgba(27, 150, 243, 0.08)"></path><path d="M325 1225L325 825" stroke-width="8.33" stroke="rgba(27, 150, 243, 0.08)"></path><path d="M312.5 1225 a12.5 12.5 0 1 0 25 0 a12.5 12.5 0 1 0 -25 0zM312.5 825 a12.5 12.5 0 1 0 25 0 a12.5 12.5 0 1 0 -25 0z" fill="rgba(27, 150, 243, 0.08)"></path><path d="M625 925L675 975L675 1025" stroke-width="8.33" stroke="rgba(27, 150, 243, 0.08)"></path><path d="M612.5 925 a12.5 12.5 0 1 0 25 0 a12.5 12.5 0 1 0 -25 0zM662.5 1025 a12.5 12.5 0 1 0 25 0 a12.5 12.5 0 1 0 -25 0z" fill="rgba(27, 150, 243, 0.08)"></path><path d="M1925 1525L1925 1375L1875 1325L1775 1325" stroke-width="8.33" stroke="rgba(27, 150, 243, 0.08)"></path><path d="M1912.5 1525 a12.5 12.5 0 1 0 25 0 a12.5 12.5 0 1 0 -25 0zM1762.5 1325 a12.5 12.5 0 1 0 25 0 a12.5 12.5 0 1 0 -25 0z" fill="rgba(27, 150, 243, 0.08)"></path><path d="M25 1575L225 1775L275 1775L325 1725L325 1525" stroke-width="8.33" stroke="rgba(27, 150, 243, 0.08)"></path><path d="M12.5 1575 a12.5 12.5 0 1 0 25 0 a12.5 12.5 0 1 0 -25 0zM312.5 1525 a12.5 12.5 0 1 0 25 0 a12.5 12.5 0 1 0 -25 0z" fill="rgba(27, 150, 243, 0.08)"></path><path d="M1275 875L1075 675L925 675" stroke-width="8.33" stroke="rgba(27, 150, 243, 0.08)"></path><path d="M1262.5 875 a12.5 12.5 0 1 0 25 0 a12.5 12.5 0 1 0 -25 0zM912.5 675 a12.5 12.5 0 1 0 25 0 a12.5 12.5 0 1 0 -25 0z" fill="rgba(27, 150, 243, 0.08)"></path><path d="M425 175L275 175" stroke-width="8.33" stroke="rgba(27, 150, 243, 0.08)"></path><path d="M412.5 175 a12.5 12.5 0 1 0 25 0 a12.5 12.5 0 1 0 -25 0zM262.5 175 a12.5 12.5 0 1 0 25 0 a12.5 12.5 0 1 0 -25 0z" fill="rgba(27, 150, 243, 0.08)"></path><path d="M825 925L825 1025" stroke-width="8.33" stroke="rgba(27, 150, 243, 0.08)"></path><path d="M812.5 925 a12.5 12.5 0 1 0 25 0 a12.5 12.5 0 1 0 -25 0zM812.5 1025 a12.5 12.5 0 1 0 25 0 a12.5 12.5 0 1 0 -25 0z" fill="rgba(27, 150, 243, 0.08)"></path><path d="M425 225L475 275L525 275L625 175" stroke-width="8.33" stroke="rgba(27, 150, 243, 0.08)"></path><path d="M412.5 225 a12.5 12.5 0 1 0 25 0 a12.5 12.5 0 1 0 -25 0zM612.5 175 a12.5 12.5 0 1 0 25 0 a12.5 12.5 0 1 0 -25 0z" fill="rgba(27, 150, 243, 0.08)"></path><path d="M675 1175L525 1325" stroke-width="8.33" stroke="rgba(27, 150, 243, 0.08)"></path><path d="M662.5 1175 a12.5 12.5 0 1 0 25 0 a12.5 12.5 0 1 0 -25 0zM512.5 1325 a12.5 12.5 0 1 0 25 0 a12.5 12.5 0 1 0 -25 0z" fill="rgba(27, 150, 243, 0.08)"></path><path d="M1025 125L775 125L675 25" stroke-width="8.33" stroke="rgba(27, 150, 243, 0.08)"></path><path d="M1012.5 125 a12.5 12.5 0 1 0 25 0 a12.5 12.5 0 1 0 -25 0zM662.5 25 a12.5 12.5 0 1 0 25 0 a12.5 12.5 0 1 0 -25 0z" fill="rgba(27, 150, 243, 0.08)"></path><path d="M225 275L25 75" stroke-width="8.33" stroke="rgba(27, 150, 243, 0.08)"></path><path d="M212.5 275 a12.5 12.5 0 1 0 25 0 a12.5 12.5 0 1 0 -25 0zM12.5 75 a12.5 12.5 0 1 0 25 0 a12.5 12.5 0 1 0 -25 0z" fill="rgba(27, 150, 243, 0.08)"></path><path d="M1375 1025L1475 925" stroke-width="8.33" stroke="rgba(27, 150, 243, 0.08)"></path><path d="M1362.5 1025 a12.5 12.5 0 1 0 25 0 a12.5 12.5 0 1 0 -25 0zM1462.5 925 a12.5 12.5 0 1 0 25 0 a12.5 12.5 0 1 0 -25 0z" fill="rgba(27, 150, 243, 0.08)"></path><path d="M125 1775L175 1825L225 1825" stroke-width="8.33" stroke="rgba(27, 150, 243, 0.08)"></path><path d="M112.5 1775 a12.5 12.5 0 1 0 25 0 a12.5 12.5 0 1 0 -25 0zM212.5 1825 a12.5 12.5 0 1 0 25 0 a12.5 12.5 0 1 0 -25 0z" fill="rgba(27, 150, 243, 0.08)"></path><path d="M1625 475L1675 475L1725 425L1775 425" stroke-width="8.33" stroke="rgba(27, 150, 243, 0.08)"></path><path d="M1612.5 475 a12.5 12.5 0 1 0 25 0 a12.5 12.5 0 1 0 -25 0zM1762.5 425 a12.5 12.5 0 1 0 25 0 a12.5 12.5 0 1 0 -25 0z" fill="rgba(27, 150, 243, 0.08)"></path><path d="M1825 1775L1725 1675L1725 1575L1675 1525L1625 1525" stroke-width="8.33" stroke="rgba(27, 150, 243, 0.08)"></path><path d="M1812.5 1775 a12.5 12.5 0 1 0 25 0 a12.5 12.5 0 1 0 -25 0zM1612.5 1525 a12.5 12.5 0 1 0 25 0 a12.5 12.5 0 1 0 -25 0z" fill="rgba(27, 150, 243, 0.08)"></path><path d="M1625 525L1775 525" stroke-width="8.33" stroke="rgba(27, 150, 243, 0.08)"></path><path d="M1612.5 525 a12.5 12.5 0 1 0 25 0 a12.5 12.5 0 1 0 -25 0zM1762.5 525 a12.5 12.5 0 1 0 25 0 a12.5 12.5 0 1 0 -25 0z" fill="rgba(27, 150, 243, 0.08)"></path><path d="M1775 875L1775 975L1675 1075L1425 1075" stroke-width="8.33" stroke="rgba(27, 150, 243, 0.08)"></path><path d="M1762.5 875 a12.5 12.5 0 1 0 25 0 a12.5 12.5 0 1 0 -25 0zM1412.5 1075 a12.5 12.5 0 1 0 25 0 a12.5 12.5 0 1 0 -25 0z" fill="rgba(27, 150, 243, 0.08)"></path><path d="M1175 375L1275 275L1325 275L1525 75L1575 75L1625 125" stroke-width="8.33" stroke="rgba(27, 150, 243, 0.08)"></path><path d="M1162.5 375 a12.5 12.5 0 1 0 25 0 a12.5 12.5 0 1 0 -25 0zM1612.5 125 a12.5 12.5 0 1 0 25 0 a12.5 12.5 0 1 0 -25 0z" fill="rgba(27, 150, 243, 0.08)"></path><path d="M775 1725L825 1775L975 1775" stroke-width="8.33" stroke="rgba(27, 150, 243, 0.08)"></path><path d="M762.5 1725 a12.5 12.5 0 1 0 25 0 a12.5 12.5 0 1 0 -25 0zM962.5 1775 a12.5 12.5 0 1 0 25 0 a12.5 12.5 0 1 0 -25 0z" fill="rgba(27, 150, 243, 0.08)"></path><path d="M1325 575L1425 575" stroke-width="8.33" stroke="rgba(27, 150, 243, 0.08)"></path><path d="M1312.5 575 a12.5 12.5 0 1 0 25 0 a12.5 12.5 0 1 0 -25 0zM1412.5 575 a12.5 12.5 0 1 0 25 0 a12.5 12.5 0 1 0 -25 0z" fill="rgba(27, 150, 243, 0.08)"></path><path d="M675 1675L625 1675L575 1725L475 1725" stroke-width="8.33" stroke="rgba(27, 150, 243, 0.08)"></path><path d="M662.5 1675 a12.5 12.5 0 1 0 25 0 a12.5 12.5 0 1 0 -25 0zM462.5 1725 a12.5 12.5 0 1 0 25 0 a12.5 12.5 0 1 0 -25 0z" fill="rgba(27, 150, 243, 0.08)"></path><path d="M25 1725L25 1625" stroke-width="8.33" stroke="rgba(27, 150, 243, 0.08)"></path><path d="M12.5 1725 a12.5 12.5 0 1 0 25 0 a12.5 12.5 0 1 0 -25 0zM12.5 1625 a12.5 12.5 0 1 0 25 0 a12.5 12.5 0 1 0 -25 0z" fill="rgba(27, 150, 243, 0.08)"></path><path d="M1325 1675L1325 1725L1375 1775L1425 1775L1525 1675L1525 1575L1475 1525L1475 1375" stroke-width="8.33" stroke="rgba(27, 150, 243, 0.08)"></path><path d="M1312.5 1675 a12.5 12.5 0 1 0 25 0 a12.5 12.5 0 1 0 -25 0zM1462.5 1375 a12.5 12.5 0 1 0 25 0 a12.5 12.5 0 1 0 -25 0z" fill="rgba(27, 150, 243, 0.08)"></path><path d="M1475 525L1375 425" stroke-width="8.33" stroke="rgba(27, 150, 243, 0.08)"></path><path d="M1462.5 525 a12.5 12.5 0 1 0 25 0 a12.5 12.5 0 1 0 -25 0zM1362.5 425 a12.5 12.5 0 1 0 25 0 a12.5 12.5 0 1 0 -25 0z" fill="rgba(27, 150, 243, 0.08)"></path><path d="M1175 225L1275 125" stroke-width="8.33" stroke="rgba(27, 150, 243, 0.08)"></path><path d="M1162.5 225 a12.5 12.5 0 1 0 25 0 a12.5 12.5 0 1 0 -25 0zM1262.5 125 a12.5 12.5 0 1 0 25 0 a12.5 12.5 0 1 0 -25 0z" fill="rgba(27, 150, 243, 0.08)"></path><path d="M725 375L925 375L975 425" stroke-width="8.33" stroke="rgba(27, 150, 243, 0.08)"></path><path d="M712.5 375 a12.5 12.5 0 1 0 25 0 a12.5 12.5 0 1 0 -25 0zM962.5 425 a12.5 12.5 0 1 0 25 0 a12.5 12.5 0 1 0 -25 0z" fill="rgba(27, 150, 243, 0.08)"></path><path d="M125 1225L75 1175L75 925L175 825L225 825" stroke-width="8.33" stroke="rgba(27, 150, 243, 0.08)"></path><path d="M112.5 1225 a12.5 12.5 0 1 0 25 0 a12.5 12.5 0 1 0 -25 0zM212.5 825 a12.5 12.5 0 1 0 25 0 a12.5 12.5 0 1 0 -25 0z" fill="rgba(27, 150, 243, 0.08)"></path><path d="M1725 925L1725 975L1675 1025L1425 1025" stroke-width="8.33" stroke="rgba(27, 150, 243, 0.08)"></path><path d="M1712.5 925 a12.5 12.5 0 1 0 25 0 a12.5 12.5 0 1 0 -25 0zM1412.5 1025 a12.5 12.5 0 1 0 25 0 a12.5 12.5 0 1 0 -25 0z" fill="rgba(27, 150, 243, 0.08)"></path><path d="M925 1275L825 1175L725 1175L575 1325" stroke-width="8.33" stroke="rgba(27, 150, 243, 0.08)"></path><path d="M912.5 1275 a12.5 12.5 0 1 0 25 0 a12.5 12.5 0 1 0 -25 0zM562.5 1325 a12.5 12.5 0 1 0 25 0 a12.5 12.5 0 1 0 -25 0z" fill="rgba(27, 150, 243, 0.08)"></path><path d="M1575 275L1675 275" stroke-width="8.33" stroke="rgba(27, 150, 243, 0.08)"></path><path d="M1562.5 275 a12.5 12.5 0 1 0 25 0 a12.5 12.5 0 1 0 -25 0zM1662.5 275 a12.5 12.5 0 1 0 25 0 a12.5 12.5 0 1 0 -25 0z" fill="rgba(27, 150, 243, 0.08)"></path><path d="M25 725L175 725" stroke-width="8.33" stroke="rgba(27, 150, 243, 0.08)"></path><path d="M12.5 725 a12.5 12.5 0 1 0 25 0 a12.5 12.5 0 1 0 -25 0zM162.5 725 a12.5 12.5 0 1 0 25 0 a12.5 12.5 0 1 0 -25 0z" fill="rgba(27, 150, 243, 0.08)"></path><path d="M1625 1375L1525 1375" stroke-width="8.33" stroke="rgba(27, 150, 243, 0.08)"></path><path d="M1612.5 1375 a12.5 12.5 0 1 0 25 0 a12.5 12.5 0 1 0 -25 0zM1512.5 1375 a12.5 12.5 0 1 0 25 0 a12.5 12.5 0 1 0 -25 0z" fill="rgba(27, 150, 243, 0.08)"></path><path d="M1325 175L1425 75L1475 75" stroke-width="8.33" stroke="rgba(27, 150, 243, 0.08)"></path><path d="M1312.5 175 a12.5 12.5 0 1 0 25 0 a12.5 12.5 0 1 0 -25 0zM1462.5 75 a12.5 12.5 0 1 0 25 0 a12.5 12.5 0 1 0 -25 0z" fill="rgba(27, 150, 243, 0.08)"></path><path d="M1925 1875L1875 1875L1825 1925" stroke-width="8.33" stroke="rgba(27, 150, 243, 0.08)"></path><path d="M1912.5 1875 a12.5 12.5 0 1 0 25 0 a12.5 12.5 0 1 0 -25 0zM1812.5 1925 a12.5 12.5 0 1 0 25 0 a12.5 12.5 0 1 0 -25 0z" fill="rgba(27, 150, 243, 0.08)"></path><path d="M775 1025L775 925" stroke-width="8.33" stroke="rgba(27, 150, 243, 0.08)"></path><path d="M762.5 1025 a12.5 12.5 0 1 0 25 0 a12.5 12.5 0 1 0 -25 0zM762.5 925 a12.5 12.5 0 1 0 25 0 a12.5 12.5 0 1 0 -25 0z" fill="rgba(27, 150, 243, 0.08)"></path><path d="M175 1175L225 1225L225 1275" stroke-width="8.33" stroke="rgba(27, 150, 243, 0.08)"></path><path d="M162.5 1175 a12.5 12.5 0 1 0 25 0 a12.5 12.5 0 1 0 -25 0zM212.5 1275 a12.5 12.5 0 1 0 25 0 a12.5 12.5 0 1 0 -25 0z" fill="rgba(27, 150, 243, 0.08)"></path><path d="M425 1025L425 1125" stroke-width="8.33" stroke="rgba(27, 150, 243, 0.08)"></path><path d="M412.5 1025 a12.5 12.5 0 1 0 25 0 a12.5 12.5 0 1 0 -25 0zM412.5 1125 a12.5 12.5 0 1 0 25 0 a12.5 12.5 0 1 0 -25 0z" fill="rgba(27, 150, 243, 0.08)"></path><path d="M1325 825L1325 975" stroke-width="8.33" stroke="rgba(27, 150, 243, 0.08)"></path><path d="M1312.5 825 a12.5 12.5 0 1 0 25 0 a12.5 12.5 0 1 0 -25 0zM1312.5 975 a12.5 12.5 0 1 0 25 0 a12.5 12.5 0 1 0 -25 0z" fill="rgba(27, 150, 243, 0.08)"></path><path d="M75 1775L75 1675" stroke-width="8.33" stroke="rgba(27, 150, 243, 0.08)"></path><path d="M62.5 1775 a12.5 12.5 0 1 0 25 0 a12.5 12.5 0 1 0 -25 0zM62.5 1675 a12.5 12.5 0 1 0 25 0 a12.5 12.5 0 1 0 -25 0z" fill="rgba(27, 150, 243, 0.08)"></path><path d="M375 1025L375 1125" stroke-width="8.33" stroke="rgba(27, 150, 243, 0.08)"></path><path d="M362.5 1025 a12.5 12.5 0 1 0 25 0 a12.5 12.5 0 1 0 -25 0zM362.5 1125 a12.5 12.5 0 1 0 25 0 a12.5 12.5 0 1 0 -25 0z" fill="rgba(27, 150, 243, 0.08)"></path><path d="M675 1575L575 1575" stroke-width="8.33" stroke="rgba(27, 150, 243, 0.08)"></path><path d="M662.5 1575 a12.5 12.5 0 1 0 25 0 a12.5 12.5 0 1 0 -25 0zM562.5 1575 a12.5 12.5 0 1 0 25 0 a12.5 12.5 0 1 0 -25 0z" fill="rgba(27, 150, 243, 0.08)"></path><path d="M675 275L675 425" stroke-width="8.33" stroke="rgba(27, 150, 243, 0.08)"></path><path d="M662.5 275 a12.5 12.5 0 1 0 25 0 a12.5 12.5 0 1 0 -25 0zM662.5 425 a12.5 12.5 0 1 0 25 0 a12.5 12.5 0 1 0 -25 0z" fill="rgba(27, 150, 243, 0.08)"></path><path d="M1525 1525L1525 1425" stroke-width="8.33" stroke="rgba(27, 150, 243, 0.08)"></path><path d="M1512.5 1525 a12.5 12.5 0 1 0 25 0 a12.5 12.5 0 1 0 -25 0zM1512.5 1425 a12.5 12.5 0 1 0 25 0 a12.5 12.5 0 1 0 -25 0z" fill="rgba(27, 150, 243, 0.08)"></path><path d="M1275 1475L1225 1475L1175 1425L1175 1375" stroke-width="8.33" stroke="rgba(27, 150, 243, 0.08)"></path><path d="M1262.5 1475 a12.5 12.5 0 1 0 25 0 a12.5 12.5 0 1 0 -25 0zM1162.5 1375 a12.5 12.5 0 1 0 25 0 a12.5 12.5 0 1 0 -25 0z" fill="rgba(27, 150, 243, 0.08)"></path><path d="M175 1025L175 1075L125 1125L125 1175" stroke-width="8.33" stroke="rgba(27, 150, 243, 0.08)"></path><path d="M162.5 1025 a12.5 12.5 0 1 0 25 0 a12.5 12.5 0 1 0 -25 0zM112.5 1175 a12.5 12.5 0 1 0 25 0 a12.5 12.5 0 1 0 -25 0z" fill="rgba(27, 150, 243, 0.08)"></path><path d="M225 1525L125 1625" stroke-width="8.33" stroke="rgba(27, 150, 243, 0.08)"></path><path d="M212.5 1525 a12.5 12.5 0 1 0 25 0 a12.5 12.5 0 1 0 -25 0zM112.5 1625 a12.5 12.5 0 1 0 25 0 a12.5 12.5 0 1 0 -25 0z" fill="rgba(27, 150, 243, 0.08)"></path><path d="M675 1325L775 1225L825 1225" stroke-width="8.33" stroke="rgba(27, 150, 243, 0.08)"></path><path d="M662.5 1325 a12.5 12.5 0 1 0 25 0 a12.5 12.5 0 1 0 -25 0zM812.5 1225 a12.5 12.5 0 1 0 25 0 a12.5 12.5 0 1 0 -25 0z" fill="rgba(27, 150, 243, 0.08)"></path><path d="M775 75L825 25L875 25L925 75L1025 75" stroke-width="8.33" stroke="rgba(27, 150, 243, 0.08)"></path><path d="M762.5 75 a12.5 12.5 0 1 0 25 0 a12.5 12.5 0 1 0 -25 0zM1012.5 75 a12.5 12.5 0 1 0 25 0 a12.5 12.5 0 1 0 -25 0z" fill="rgba(27, 150, 243, 0.08)"></path><path d="M225 375L275 425L325 425" stroke-width="8.33" stroke="rgba(27, 150, 243, 0.08)"></path><path d="M212.5 375 a12.5 12.5 0 1 0 25 0 a12.5 12.5 0 1 0 -25 0zM312.5 425 a12.5 12.5 0 1 0 25 0 a12.5 12.5 0 1 0 -25 0z" fill="rgba(27, 150, 243, 0.08)"></path><path d="M1525 1125L1625 1125" stroke-width="8.33" stroke="rgba(27, 150, 243, 0.08)"></path><path d="M1512.5 1125 a12.5 12.5 0 1 0 25 0 a12.5 12.5 0 1 0 -25 0zM1612.5 1125 a12.5 12.5 0 1 0 25 0 a12.5 12.5 0 1 0 -25 0z" fill="rgba(27, 150, 243, 0.08)"></path><path d="M1075 1275L975 1175" stroke-width="8.33" stroke="rgba(27, 150, 243, 0.08)"></path><path d="M1062.5 1275 a12.5 12.5 0 1 0 25 0 a12.5 12.5 0 1 0 -25 0zM962.5 1175 a12.5 12.5 0 1 0 25 0 a12.5 12.5 0 1 0 -25 0z" fill="rgba(27, 150, 243, 0.08)"></path><path d="M625 425L625 275" stroke-width="8.33" stroke="rgba(27, 150, 243, 0.08)"></path><path d="M612.5 425 a12.5 12.5 0 1 0 25 0 a12.5 12.5 0 1 0 -25 0zM612.5 275 a12.5 12.5 0 1 0 25 0 a12.5 12.5 0 1 0 -25 0z" fill="rgba(27, 150, 243, 0.08)"></path><path d="M25 1875L175 1875" stroke-width="8.33" stroke="rgba(27, 150, 243, 0.08)"></path><path d="M12.5 1875 a12.5 12.5 0 1 0 25 0 a12.5 12.5 0 1 0 -25 0zM162.5 1875 a12.5 12.5 0 1 0 25 0 a12.5 12.5 0 1 0 -25 0z" fill="rgba(27, 150, 243, 0.08)"></path><path d="M475 125L525 175L525 225" stroke-width="8.33" stroke="rgba(27, 150, 243, 0.08)"></path><path d="M462.5 125 a12.5 12.5 0 1 0 25 0 a12.5 12.5 0 1 0 -25 0zM512.5 225 a12.5 12.5 0 1 0 25 0 a12.5 12.5 0 1 0 -25 0z" fill="rgba(27, 150, 243, 0.08)"></path><path d="M1725 875L1625 975L1575 975" stroke-width="8.33" stroke="rgba(27, 150, 243, 0.08)"></path><path d="M1712.5 875 a12.5 12.5 0 1 0 25 0 a12.5 12.5 0 1 0 -25 0zM1562.5 975 a12.5 12.5 0 1 0 25 0 a12.5 12.5 0 1 0 -25 0z" fill="rgba(27, 150, 243, 0.08)"></path><path d="M375 975L375 875" stroke-width="8.33" stroke="rgba(27, 150, 243, 0.08)"></path><path d="M362.5 975 a12.5 12.5 0 1 0 25 0 a12.5 12.5 0 1 0 -25 0zM362.5 875 a12.5 12.5 0 1 0 25 0 a12.5 12.5 0 1 0 -25 0z" fill="rgba(27, 150, 243, 0.08)"></path><path d="M1875 1775L1875 1725L1775 1625" stroke-width="8.33" stroke="rgba(27, 150, 243, 0.08)"></path><path d="M1862.5 1775 a12.5 12.5 0 1 0 25 0 a12.5 12.5 0 1 0 -25 0zM1762.5 1625 a12.5 12.5 0 1 0 25 0 a12.5 12.5 0 1 0 -25 0z" fill="rgba(27, 150, 243, 0.08)"></path><path d="M775 1325L825 1375L825 1425" stroke-width="8.33" stroke="rgba(27, 150, 243, 0.08)"></path><path d="M762.5 1325 a12.5 12.5 0 1 0 25 0 a12.5 12.5 0 1 0 -25 0zM812.5 1425 a12.5 12.5 0 1 0 25 0 a12.5 12.5 0 1 0 -25 0z" fill="rgba(27, 150, 243, 0.08)"></path><path d="M1225 1025L1275 1075L1275 1175L1325 1225L1375 1225" stroke-width="8.33" stroke="rgba(27, 150, 243, 0.08)"></path><path d="M1212.5 1025 a12.5 12.5 0 1 0 25 0 a12.5 12.5 0 1 0 -25 0zM1362.5 1225 a12.5 12.5 0 1 0 25 0 a12.5 12.5 0 1 0 -25 0z" fill="rgba(27, 150, 243, 0.08)"></path><path d="M1875 1425L1775 1425" stroke-width="8.33" stroke="rgba(27, 150, 243, 0.08)"></path><path d="M1862.5 1425 a12.5 12.5 0 1 0 25 0 a12.5 12.5 0 1 0 -25 0zM1762.5 1425 a12.5 12.5 0 1 0 25 0 a12.5 12.5 0 1 0 -25 0z" fill="rgba(27, 150, 243, 0.08)"></path><path d="M1475 725L1425 675L1325 675" stroke-width="8.33" stroke="rgba(27, 150, 243, 0.08)"></path><path d="M1462.5 725 a12.5 12.5 0 1 0 25 0 a12.5 12.5 0 1 0 -25 0zM1312.5 675 a12.5 12.5 0 1 0 25 0 a12.5 12.5 0 1 0 -25 0z" fill="rgba(27, 150, 243, 0.08)"></path><path d="M1225 1125L1075 975" stroke-width="8.33" stroke="rgba(27, 150, 243, 0.08)"></path><path d="M1212.5 1125 a12.5 12.5 0 1 0 25 0 a12.5 12.5 0 1 0 -25 0zM1062.5 975 a12.5 12.5 0 1 0 25 0 a12.5 12.5 0 1 0 -25 0z" fill="rgba(27, 150, 243, 0.08)"></path><path d="M1725 375L1625 375L1525 475L1475 475" stroke-width="8.33" stroke="rgba(27, 150, 243, 0.08)"></path><path d="M1712.5 375 a12.5 12.5 0 1 0 25 0 a12.5 12.5 0 1 0 -25 0zM1462.5 475 a12.5 12.5 0 1 0 25 0 a12.5 12.5 0 1 0 -25 0z" fill="rgba(27, 150, 243, 0.08)"></path><path d="M1225 1625L1225 1575L1175 1525L1125 1525" stroke-width="8.33" stroke="rgba(27, 150, 243, 0.08)"></path><path d="M1212.5 1625 a12.5 12.5 0 1 0 25 0 a12.5 12.5 0 1 0 -25 0zM1112.5 1525 a12.5 12.5 0 1 0 25 0 a12.5 12.5 0 1 0 -25 0z" fill="rgba(27, 150, 243, 0.08)"></path><path d="M525 675L325 675" stroke-width="8.33" stroke="rgba(27, 150, 243, 0.08)"></path><path d="M512.5 675 a12.5 12.5 0 1 0 25 0 a12.5 12.5 0 1 0 -25 0zM312.5 675 a12.5 12.5 0 1 0 25 0 a12.5 12.5 0 1 0 -25 0z" fill="rgba(27, 150, 243, 0.08)"></path><path d="M1775 1175L1825 1125L1825 1025" stroke-width="8.33" stroke="rgba(27, 150, 243, 0.08)"></path><path d="M1762.5 1175 a12.5 12.5 0 1 0 25 0 a12.5 12.5 0 1 0 -25 0zM1812.5 1025 a12.5 12.5 0 1 0 25 0 a12.5 12.5 0 1 0 -25 0z" fill="rgba(27, 150, 243, 0.08)"></path><path d="M1725 1175L1725 1125L1775 1075" stroke-width="8.33" stroke="rgba(27, 150, 243, 0.08)"></path><path d="M1712.5 1175 a12.5 12.5 0 1 0 25 0 a12.5 12.5 0 1 0 -25 0zM1762.5 1075 a12.5 12.5 0 1 0 25 0 a12.5 12.5 0 1 0 -25 0z" fill="rgba(27, 150, 243, 0.08)"></path><path d="M1075 725L975 725" stroke-width="8.33" stroke="rgba(27, 150, 243, 0.08)"></path><path d="M1062.5 725 a12.5 12.5 0 1 0 25 0 a12.5 12.5 0 1 0 -25 0zM962.5 725 a12.5 12.5 0 1 0 25 0 a12.5 12.5 0 1 0 -25 0z" fill="rgba(27, 150, 243, 0.08)"></path><path d="M1125 625L1225 725" stroke-width="8.33" stroke="rgba(27, 150, 243, 0.08)"></path><path d="M1112.5 625 a12.5 12.5 0 1 0 25 0 a12.5 12.5 0 1 0 -25 0zM1212.5 725 a12.5 12.5 0 1 0 25 0 a12.5 12.5 0 1 0 -25 0z" fill="rgba(27, 150, 243, 0.08)"></path><path d="M1175 875L1125 825L1075 825L1025 775" stroke-width="8.33" stroke="rgba(27, 150, 243, 0.08)"></path><path d="M1162.5 875 a12.5 12.5 0 1 0 25 0 a12.5 12.5 0 1 0 -25 0zM1012.5 775 a12.5 12.5 0 1 0 25 0 a12.5 12.5 0 1 0 -25 0z" fill="rgba(27, 150, 243, 0.08)"></path><path d="M125 1025L125 925" stroke-width="8.33" stroke="rgba(27, 150, 243, 0.08)"></path><path d="M112.5 1025 a12.5 12.5 0 1 0 25 0 a12.5 12.5 0 1 0 -25 0zM112.5 925 a12.5 12.5 0 1 0 25 0 a12.5 12.5 0 1 0 -25 0z" fill="rgba(27, 150, 243, 0.08)"></path><path d="M1175 275L1225 275L1275 225L1325 225" stroke-width="8.33" stroke="rgba(27, 150, 243, 0.08)"></path><path d="M1162.5 275 a12.5 12.5 0 1 0 25 0 a12.5 12.5 0 1 0 -25 0zM1312.5 225 a12.5 12.5 0 1 0 25 0 a12.5 12.5 0 1 0 -25 0z" fill="rgba(27, 150, 243, 0.08)"></path></g></g><defs><mask id="SvgjsMask1078"><rect width="1920" height="1920" fill="#ffffff"></rect></mask><mask id="SvgjsMask1079"><rect width="1920" height="1920" fill="white"></rect><path d="M818.75 1625 a6.25 6.25 0 1 0 12.5 0 a6.25 6.25 0 1 0 -12.5 0zM18.75 1375 a6.25 6.25 0 1 0 12.5 0 a6.25 6.25 0 1 0 -12.5 0z" fill="black"></path><path d="M618.75 25 a6.25 6.25 0 1 0 12.5 0 a6.25 6.25 0 1 0 -12.5 0zM1568.75 925 a6.25 6.25 0 1 0 12.5 0 a6.25 6.25 0 1 0 -12.5 0z" fill="black"></path><path d="M318.75 1825 a6.25 6.25 0 1 0 12.5 0 a6.25 6.25 0 1 0 -12.5 0zM18.75 1425 a6.25 6.25 0 1 0 12.5 0 a6.25 6.25 0 1 0 -12.5 0z" fill="black"></path><path d="M518.75 1575 a6.25 6.25 0 1 0 12.5 0 a6.25 6.25 0 1 0 -12.5 0zM618.75 1475 a6.25 6.25 0 1 0 12.5 0 a6.25 6.25 0 1 0 -12.5 0z" fill="black"></path><path d="M1318.75 125 a6.25 6.25 0 1 0 12.5 0 a6.25 6.25 0 1 0 -12.5 0zM1918.75 25 a6.25 6.25 0 1 0 12.5 0 a6.25 6.25 0 1 0 -12.5 0z" fill="black"></path><path d="M118.75 1525 a6.25 6.25 0 1 0 12.5 0 a6.25 6.25 0 1 0 -12.5 0zM18.75 1925 a6.25 6.25 0 1 0 12.5 0 a6.25 6.25 0 1 0 -12.5 0z" fill="black"></path><path d="M1118.75 475 a6.25 6.25 0 1 0 12.5 0 a6.25 6.25 0 1 0 -12.5 0zM1068.75 25 a6.25 6.25 0 1 0 12.5 0 a6.25 6.25 0 1 0 -12.5 0z" fill="black"></path><path d="M768.75 1275 a6.25 6.25 0 1 0 12.5 0 a6.25 6.25 0 1 0 -12.5 0zM1718.75 1925 a6.25 6.25 0 1 0 12.5 0 a6.25 6.25 0 1 0 -12.5 0z" fill="black"></path><path d="M618.75 675 a6.25 6.25 0 1 0 12.5 0 a6.25 6.25 0 1 0 -12.5 0zM468.75 1325 a6.25 6.25 0 1 0 12.5 0 a6.25 6.25 0 1 0 -12.5 0z" fill="black"></path><path d="M868.75 1275 a6.25 6.25 0 1 0 12.5 0 a6.25 6.25 0 1 0 -12.5 0zM1768.75 1875 a6.25 6.25 0 1 0 12.5 0 a6.25 6.25 0 1 0 -12.5 0z" fill="black"></path><path d="M918.75 175 a6.25 6.25 0 1 0 12.5 0 a6.25 6.25 0 1 0 -12.5 0zM1018.75 375 a6.25 6.25 0 1 0 12.5 0 a6.25 6.25 0 1 0 -12.5 0z" fill="black"></path><path d="M1368.75 275 a6.25 6.25 0 1 0 12.5 0 a6.25 6.25 0 1 0 -12.5 0zM1168.75 525 a6.25 6.25 0 1 0 12.5 0 a6.25 6.25 0 1 0 -12.5 0z" fill="black"></path><path d="M1118.75 1825 a6.25 6.25 0 1 0 12.5 0 a6.25 6.25 0 1 0 -12.5 0zM218.75 1925 a6.25 6.25 0 1 0 12.5 0 a6.25 6.25 0 1 0 -12.5 0z" fill="black"></path><path d="M268.75 275 a6.25 6.25 0 1 0 12.5 0 a6.25 6.25 0 1 0 -12.5 0zM18.75 25 a6.25 6.25 0 1 0 12.5 0 a6.25 6.25 0 1 0 -12.5 0z" fill="black"></path><path d="M868.75 1625 a6.25 6.25 0 1 0 12.5 0 a6.25 6.25 0 1 0 -12.5 0zM1368.75 1925 a6.25 6.25 0 1 0 12.5 0 a6.25 6.25 0 1 0 -12.5 0z" fill="black"></path><path d="M168.75 575 a6.25 6.25 0 1 0 12.5 0 a6.25 6.25 0 1 0 -12.5 0zM1068.75 925 a6.25 6.25 0 1 0 12.5 0 a6.25 6.25 0 1 0 -12.5 0z" fill="black"></path><path d="M968.75 975 a6.25 6.25 0 1 0 12.5 0 a6.25 6.25 0 1 0 -12.5 0zM1918.75 1275 a6.25 6.25 0 1 0 12.5 0 a6.25 6.25 0 1 0 -12.5 0z" fill="black"></path><path d="M668.75 125 a6.25 6.25 0 1 0 12.5 0 a6.25 6.25 0 1 0 -12.5 0zM68.75 25 a6.25 6.25 0 1 0 12.5 0 a6.25 6.25 0 1 0 -12.5 0z" fill="black"></path><path d="M1568.75 525 a6.25 6.25 0 1 0 12.5 0 a6.25 6.25 0 1 0 -12.5 0zM1518.75 875 a6.25 6.25 0 1 0 12.5 0 a6.25 6.25 0 1 0 -12.5 0z" fill="black"></path><path d="M1118.75 875 a6.25 6.25 0 1 0 12.5 0 a6.25 6.25 0 1 0 -12.5 0zM1918.75 1225 a6.25 6.25 0 1 0 12.5 0 a6.25 6.25 0 1 0 -12.5 0z" fill="black"></path><path d="M1818.75 675 a6.25 6.25 0 1 0 12.5 0 a6.25 6.25 0 1 0 -12.5 0zM1568.75 675 a6.25 6.25 0 1 0 12.5 0 a6.25 6.25 0 1 0 -12.5 0z" fill="black"></path><path d="M1568.75 1325 a6.25 6.25 0 1 0 12.5 0 a6.25 6.25 0 1 0 -12.5 0zM918.75 1325 a6.25 6.25 0 1 0 12.5 0 a6.25 6.25 0 1 0 -12.5 0z" fill="black"></path><path d="M1268.75 1225 a6.25 6.25 0 1 0 12.5 0 a6.25 6.25 0 1 0 -12.5 0zM318.75 625 a6.25 6.25 0 1 0 12.5 0 a6.25 6.25 0 1 0 -12.5 0z" fill="black"></path><path d="M1518.75 175 a6.25 6.25 0 1 0 12.5 0 a6.25 6.25 0 1 0 -12.5 0zM1868.75 975 a6.25 6.25 0 1 0 12.5 0 a6.25 6.25 0 1 0 -12.5 0z" fill="black"></path><path d="M568.75 775 a6.25 6.25 0 1 0 12.5 0 a6.25 6.25 0 1 0 -12.5 0zM1218.75 1275 a6.25 6.25 0 1 0 12.5 0 a6.25 6.25 0 1 0 -12.5 0z" fill="black"></path><path d="M468.75 475 a6.25 6.25 0 1 0 12.5 0 a6.25 6.25 0 1 0 -12.5 0zM1418.75 875 a6.25 6.25 0 1 0 12.5 0 a6.25 6.25 0 1 0 -12.5 0z" fill="black"></path><path d="M1818.75 775 a6.25 6.25 0 1 0 12.5 0 a6.25 6.25 0 1 0 -12.5 0zM1568.75 725 a6.25 6.25 0 1 0 12.5 0 a6.25 6.25 0 1 0 -12.5 0z" fill="black"></path><path d="M818.75 325 a6.25 6.25 0 1 0 12.5 0 a6.25 6.25 0 1 0 -12.5 0zM18.75 225 a6.25 6.25 0 1 0 12.5 0 a6.25 6.25 0 1 0 -12.5 0z" fill="black"></path><path d="M618.75 125 a6.25 6.25 0 1 0 12.5 0 a6.25 6.25 0 1 0 -12.5 0zM118.75 75 a6.25 6.25 0 1 0 12.5 0 a6.25 6.25 0 1 0 -12.5 0z" fill="black"></path><path d="M1168.75 175 a6.25 6.25 0 1 0 12.5 0 a6.25 6.25 0 1 0 -12.5 0zM1368.75 25 a6.25 6.25 0 1 0 12.5 0 a6.25 6.25 0 1 0 -12.5 0z" fill="black"></path><path d="M868.75 1125 a6.25 6.25 0 1 0 12.5 0 a6.25 6.25 0 1 0 -12.5 0zM518.75 825 a6.25 6.25 0 1 0 12.5 0 a6.25 6.25 0 1 0 -12.5 0z" fill="black"></path><path d="M468.75 1425 a6.25 6.25 0 1 0 12.5 0 a6.25 6.25 0 1 0 -12.5 0zM568.75 1425 a6.25 6.25 0 1 0 12.5 0 a6.25 6.25 0 1 0 -12.5 0z" fill="black"></path><path d="M1568.75 375 a6.25 6.25 0 1 0 12.5 0 a6.25 6.25 0 1 0 -12.5 0zM1468.75 625 a6.25 6.25 0 1 0 12.5 0 a6.25 6.25 0 1 0 -12.5 0z" fill="black"></path><path d="M1668.75 1825 a6.25 6.25 0 1 0 12.5 0 a6.25 6.25 0 1 0 -12.5 0zM1918.75 1825 a6.25 6.25 0 1 0 12.5 0 a6.25 6.25 0 1 0 -12.5 0z" fill="black"></path><path d="M1268.75 325 a6.25 6.25 0 1 0 12.5 0 a6.25 6.25 0 1 0 -12.5 0zM1118.75 425 a6.25 6.25 0 1 0 12.5 0 a6.25 6.25 0 1 0 -12.5 0z" fill="black"></path><path d="M1168.75 1925 a6.25 6.25 0 1 0 12.5 0 a6.25 6.25 0 1 0 -12.5 0zM418.75 1925 a6.25 6.25 0 1 0 12.5 0 a6.25 6.25 0 1 0 -12.5 0z" fill="black"></path><path d="M918.75 25 a6.25 6.25 0 1 0 12.5 0 a6.25 6.25 0 1 0 -12.5 0zM1018.75 25 a6.25 6.25 0 1 0 12.5 0 a6.25 6.25 0 1 0 -12.5 0z" fill="black"></path><path d="M1818.75 1625 a6.25 6.25 0 1 0 12.5 0 a6.25 6.25 0 1 0 -12.5 0zM1918.75 1675 a6.25 6.25 0 1 0 12.5 0 a6.25 6.25 0 1 0 -12.5 0z" fill="black"></path><path d="M218.75 125 a6.25 6.25 0 1 0 12.5 0 a6.25 6.25 0 1 0 -12.5 0zM418.75 375 a6.25 6.25 0 1 0 12.5 0 a6.25 6.25 0 1 0 -12.5 0z" fill="black"></path><path d="M918.75 1525 a6.25 6.25 0 1 0 12.5 0 a6.25 6.25 0 1 0 -12.5 0zM1168.75 1725 a6.25 6.25 0 1 0 12.5 0 a6.25 6.25 0 1 0 -12.5 0z" fill="black"></path><path d="M718.75 1725 a6.25 6.25 0 1 0 12.5 0 a6.25 6.25 0 1 0 -12.5 0zM368.75 1875 a6.25 6.25 0 1 0 12.5 0 a6.25 6.25 0 1 0 -12.5 0z" fill="black"></path><path d="M1068.75 625 a6.25 6.25 0 1 0 12.5 0 a6.25 6.25 0 1 0 -12.5 0zM368.75 525 a6.25 6.25 0 1 0 12.5 0 a6.25 6.25 0 1 0 -12.5 0z" fill="black"></path><path d="M1818.75 625 a6.25 6.25 0 1 0 12.5 0 a6.25 6.25 0 1 0 -12.5 0zM1268.75 925 a6.25 6.25 0 1 0 12.5 0 a6.25 6.25 0 1 0 -12.5 0z" fill="black"></path><path d="M18.75 575 a6.25 6.25 0 1 0 12.5 0 a6.25 6.25 0 1 0 -12.5 0zM568.75 675 a6.25 6.25 0 1 0 12.5 0 a6.25 6.25 0 1 0 -12.5 0z" fill="black"></path><path d="M1868.75 275 a6.25 6.25 0 1 0 12.5 0 a6.25 6.25 0 1 0 -12.5 0zM1918.75 375 a6.25 6.25 0 1 0 12.5 0 a6.25 6.25 0 1 0 -12.5 0z" fill="black"></path><path d="M1418.75 1725 a6.25 6.25 0 1 0 12.5 0 a6.25 6.25 0 1 0 -12.5 0zM1418.75 1375 a6.25 6.25 0 1 0 12.5 0 a6.25 6.25 0 1 0 -12.5 0z" fill="black"></path><path d="M568.75 1675 a6.25 6.25 0 1 0 12.5 0 a6.25 6.25 0 1 0 -12.5 0zM468.75 1675 a6.25 6.25 0 1 0 12.5 0 a6.25 6.25 0 1 0 -12.5 0z" fill="black"></path><path d="M818.75 725 a6.25 6.25 0 1 0 12.5 0 a6.25 6.25 0 1 0 -12.5 0zM1018.75 925 a6.25 6.25 0 1 0 12.5 0 a6.25 6.25 0 1 0 -12.5 0z" fill="black"></path><path d="M218.75 775 a6.25 6.25 0 1 0 12.5 0 a6.25 6.25 0 1 0 -12.5 0zM468.75 775 a6.25 6.25 0 1 0 12.5 0 a6.25 6.25 0 1 0 -12.5 0z" fill="black"></path><path d="M1568.75 1825 a6.25 6.25 0 1 0 12.5 0 a6.25 6.25 0 1 0 -12.5 0zM1668.75 1325 a6.25 6.25 0 1 0 12.5 0 a6.25 6.25 0 1 0 -12.5 0z" fill="black"></path><path d="M1668.75 225 a6.25 6.25 0 1 0 12.5 0 a6.25 6.25 0 1 0 -12.5 0zM1868.75 625 a6.25 6.25 0 1 0 12.5 0 a6.25 6.25 0 1 0 -12.5 0z" fill="black"></path><path d="M1368.75 1675 a6.25 6.25 0 1 0 12.5 0 a6.25 6.25 0 1 0 -12.5 0zM968.75 1375 a6.25 6.25 0 1 0 12.5 0 a6.25 6.25 0 1 0 -12.5 0z" fill="black"></path><path d="M868.75 1675 a6.25 6.25 0 1 0 12.5 0 a6.25 6.25 0 1 0 -12.5 0zM468.75 1625 a6.25 6.25 0 1 0 12.5 0 a6.25 6.25 0 1 0 -12.5 0z" fill="black"></path><path d="M1768.75 225 a6.25 6.25 0 1 0 12.5 0 a6.25 6.25 0 1 0 -12.5 0zM1918.75 225 a6.25 6.25 0 1 0 12.5 0 a6.25 6.25 0 1 0 -12.5 0z" fill="black"></path><path d="M1718.75 1325 a6.25 6.25 0 1 0 12.5 0 a6.25 6.25 0 1 0 -12.5 0zM1918.75 1575 a6.25 6.25 0 1 0 12.5 0 a6.25 6.25 0 1 0 -12.5 0z" fill="black"></path><path d="M768.75 1875 a6.25 6.25 0 1 0 12.5 0 a6.25 6.25 0 1 0 -12.5 0zM1318.75 1925 a6.25 6.25 0 1 0 12.5 0 a6.25 6.25 0 1 0 -12.5 0z" fill="black"></path><path d="M1668.75 1625 a6.25 6.25 0 1 0 12.5 0 a6.25 6.25 0 1 0 -12.5 0zM1618.75 1825 a6.25 6.25 0 1 0 12.5 0 a6.25 6.25 0 1 0 -12.5 0z" fill="black"></path><path d="M68.75 225 a6.25 6.25 0 1 0 12.5 0 a6.25 6.25 0 1 0 -12.5 0zM118.75 325 a6.25 6.25 0 1 0 12.5 0 a6.25 6.25 0 1 0 -12.5 0z" fill="black"></path><path d="M718.75 1075 a6.25 6.25 0 1 0 12.5 0 a6.25 6.25 0 1 0 -12.5 0zM568.75 1075 a6.25 6.25 0 1 0 12.5 0 a6.25 6.25 0 1 0 -12.5 0z" fill="black"></path><path d="M1418.75 275 a6.25 6.25 0 1 0 12.5 0 a6.25 6.25 0 1 0 -12.5 0zM1668.75 625 a6.25 6.25 0 1 0 12.5 0 a6.25 6.25 0 1 0 -12.5 0z" fill="black"></path><path d="M268.75 1275 a6.25 6.25 0 1 0 12.5 0 a6.25 6.25 0 1 0 -12.5 0zM268.75 825 a6.25 6.25 0 1 0 12.5 0 a6.25 6.25 0 1 0 -12.5 0z" fill="black"></path><path d="M618.75 1375 a6.25 6.25 0 1 0 12.5 0 a6.25 6.25 0 1 0 -12.5 0zM1118.75 1725 a6.25 6.25 0 1 0 12.5 0 a6.25 6.25 0 1 0 -12.5 0z" fill="black"></path><path d="M768.75 825 a6.25 6.25 0 1 0 12.5 0 a6.25 6.25 0 1 0 -12.5 0zM568.75 825 a6.25 6.25 0 1 0 12.5 0 a6.25 6.25 0 1 0 -12.5 0z" fill="black"></path><path d="M318.75 1325 a6.25 6.25 0 1 0 12.5 0 a6.25 6.25 0 1 0 -12.5 0zM218.75 725 a6.25 6.25 0 1 0 12.5 0 a6.25 6.25 0 1 0 -12.5 0z" fill="black"></path><path d="M1118.75 375 a6.25 6.25 0 1 0 12.5 0 a6.25 6.25 0 1 0 -12.5 0zM1118.75 175 a6.25 6.25 0 1 0 12.5 0 a6.25 6.25 0 1 0 -12.5 0z" fill="black"></path><path d="M718.75 1325 a6.25 6.25 0 1 0 12.5 0 a6.25 6.25 0 1 0 -12.5 0zM918.75 1475 a6.25 6.25 0 1 0 12.5 0 a6.25 6.25 0 1 0 -12.5 0z" fill="black"></path><path d="M868.75 1025 a6.25 6.25 0 1 0 12.5 0 a6.25 6.25 0 1 0 -12.5 0zM568.75 875 a6.25 6.25 0 1 0 12.5 0 a6.25 6.25 0 1 0 -12.5 0z" fill="black"></path><path d="M1618.75 75 a6.25 6.25 0 1 0 12.5 0 a6.25 6.25 0 1 0 -12.5 0zM1918.75 75 a6.25 6.25 0 1 0 12.5 0 a6.25 6.25 0 1 0 -12.5 0z" fill="black"></path><path d="M468.75 1475 a6.25 6.25 0 1 0 12.5 0 a6.25 6.25 0 1 0 -12.5 0zM368.75 1425 a6.25 6.25 0 1 0 12.5 0 a6.25 6.25 0 1 0 -12.5 0z" fill="black"></path><path d="M1318.75 425 a6.25 6.25 0 1 0 12.5 0 a6.25 6.25 0 1 0 -12.5 0zM1468.75 575 a6.25 6.25 0 1 0 12.5 0 a6.25 6.25 0 1 0 -12.5 0z" fill="black"></path><path d="M718.75 925 a6.25 6.25 0 1 0 12.5 0 a6.25 6.25 0 1 0 -12.5 0zM1118.75 1275 a6.25 6.25 0 1 0 12.5 0 a6.25 6.25 0 1 0 -12.5 0z" fill="black"></path><path d="M618.75 1175 a6.25 6.25 0 1 0 12.5 0 a6.25 6.25 0 1 0 -12.5 0zM518.75 1175 a6.25 6.25 0 1 0 12.5 0 a6.25 6.25 0 1 0 -12.5 0z" fill="black"></path><path d="M318.75 1225 a6.25 6.25 0 1 0 12.5 0 a6.25 6.25 0 1 0 -12.5 0zM318.75 825 a6.25 6.25 0 1 0 12.5 0 a6.25 6.25 0 1 0 -12.5 0z" fill="black"></path><path d="M618.75 925 a6.25 6.25 0 1 0 12.5 0 a6.25 6.25 0 1 0 -12.5 0zM668.75 1025 a6.25 6.25 0 1 0 12.5 0 a6.25 6.25 0 1 0 -12.5 0z" fill="black"></path><path d="M1918.75 1525 a6.25 6.25 0 1 0 12.5 0 a6.25 6.25 0 1 0 -12.5 0zM1768.75 1325 a6.25 6.25 0 1 0 12.5 0 a6.25 6.25 0 1 0 -12.5 0z" fill="black"></path><path d="M18.75 1575 a6.25 6.25 0 1 0 12.5 0 a6.25 6.25 0 1 0 -12.5 0zM318.75 1525 a6.25 6.25 0 1 0 12.5 0 a6.25 6.25 0 1 0 -12.5 0z" fill="black"></path><path d="M1268.75 875 a6.25 6.25 0 1 0 12.5 0 a6.25 6.25 0 1 0 -12.5 0zM918.75 675 a6.25 6.25 0 1 0 12.5 0 a6.25 6.25 0 1 0 -12.5 0z" fill="black"></path><path d="M418.75 175 a6.25 6.25 0 1 0 12.5 0 a6.25 6.25 0 1 0 -12.5 0zM268.75 175 a6.25 6.25 0 1 0 12.5 0 a6.25 6.25 0 1 0 -12.5 0z" fill="black"></path><path d="M818.75 925 a6.25 6.25 0 1 0 12.5 0 a6.25 6.25 0 1 0 -12.5 0zM818.75 1025 a6.25 6.25 0 1 0 12.5 0 a6.25 6.25 0 1 0 -12.5 0z" fill="black"></path><path d="M418.75 225 a6.25 6.25 0 1 0 12.5 0 a6.25 6.25 0 1 0 -12.5 0zM618.75 175 a6.25 6.25 0 1 0 12.5 0 a6.25 6.25 0 1 0 -12.5 0z" fill="black"></path><path d="M668.75 1175 a6.25 6.25 0 1 0 12.5 0 a6.25 6.25 0 1 0 -12.5 0zM518.75 1325 a6.25 6.25 0 1 0 12.5 0 a6.25 6.25 0 1 0 -12.5 0z" fill="black"></path><path d="M1018.75 125 a6.25 6.25 0 1 0 12.5 0 a6.25 6.25 0 1 0 -12.5 0zM668.75 25 a6.25 6.25 0 1 0 12.5 0 a6.25 6.25 0 1 0 -12.5 0z" fill="black"></path><path d="M218.75 275 a6.25 6.25 0 1 0 12.5 0 a6.25 6.25 0 1 0 -12.5 0zM18.75 75 a6.25 6.25 0 1 0 12.5 0 a6.25 6.25 0 1 0 -12.5 0z" fill="black"></path><path d="M1368.75 1025 a6.25 6.25 0 1 0 12.5 0 a6.25 6.25 0 1 0 -12.5 0zM1468.75 925 a6.25 6.25 0 1 0 12.5 0 a6.25 6.25 0 1 0 -12.5 0z" fill="black"></path><path d="M118.75 1775 a6.25 6.25 0 1 0 12.5 0 a6.25 6.25 0 1 0 -12.5 0zM218.75 1825 a6.25 6.25 0 1 0 12.5 0 a6.25 6.25 0 1 0 -12.5 0z" fill="black"></path><path d="M1618.75 475 a6.25 6.25 0 1 0 12.5 0 a6.25 6.25 0 1 0 -12.5 0zM1768.75 425 a6.25 6.25 0 1 0 12.5 0 a6.25 6.25 0 1 0 -12.5 0z" fill="black"></path><path d="M1818.75 1775 a6.25 6.25 0 1 0 12.5 0 a6.25 6.25 0 1 0 -12.5 0zM1618.75 1525 a6.25 6.25 0 1 0 12.5 0 a6.25 6.25 0 1 0 -12.5 0z" fill="black"></path><path d="M1618.75 525 a6.25 6.25 0 1 0 12.5 0 a6.25 6.25 0 1 0 -12.5 0zM1768.75 525 a6.25 6.25 0 1 0 12.5 0 a6.25 6.25 0 1 0 -12.5 0z" fill="black"></path><path d="M1768.75 875 a6.25 6.25 0 1 0 12.5 0 a6.25 6.25 0 1 0 -12.5 0zM1418.75 1075 a6.25 6.25 0 1 0 12.5 0 a6.25 6.25 0 1 0 -12.5 0z" fill="black"></path><path d="M1168.75 375 a6.25 6.25 0 1 0 12.5 0 a6.25 6.25 0 1 0 -12.5 0zM1618.75 125 a6.25 6.25 0 1 0 12.5 0 a6.25 6.25 0 1 0 -12.5 0z" fill="black"></path><path d="M768.75 1725 a6.25 6.25 0 1 0 12.5 0 a6.25 6.25 0 1 0 -12.5 0zM968.75 1775 a6.25 6.25 0 1 0 12.5 0 a6.25 6.25 0 1 0 -12.5 0z" fill="black"></path><path d="M1318.75 575 a6.25 6.25 0 1 0 12.5 0 a6.25 6.25 0 1 0 -12.5 0zM1418.75 575 a6.25 6.25 0 1 0 12.5 0 a6.25 6.25 0 1 0 -12.5 0z" fill="black"></path><path d="M668.75 1675 a6.25 6.25 0 1 0 12.5 0 a6.25 6.25 0 1 0 -12.5 0zM468.75 1725 a6.25 6.25 0 1 0 12.5 0 a6.25 6.25 0 1 0 -12.5 0z" fill="black"></path><path d="M18.75 1725 a6.25 6.25 0 1 0 12.5 0 a6.25 6.25 0 1 0 -12.5 0zM18.75 1625 a6.25 6.25 0 1 0 12.5 0 a6.25 6.25 0 1 0 -12.5 0z" fill="black"></path><path d="M1318.75 1675 a6.25 6.25 0 1 0 12.5 0 a6.25 6.25 0 1 0 -12.5 0zM1468.75 1375 a6.25 6.25 0 1 0 12.5 0 a6.25 6.25 0 1 0 -12.5 0z" fill="black"></path><path d="M1468.75 525 a6.25 6.25 0 1 0 12.5 0 a6.25 6.25 0 1 0 -12.5 0zM1368.75 425 a6.25 6.25 0 1 0 12.5 0 a6.25 6.25 0 1 0 -12.5 0z" fill="black"></path><path d="M1168.75 225 a6.25 6.25 0 1 0 12.5 0 a6.25 6.25 0 1 0 -12.5 0zM1268.75 125 a6.25 6.25 0 1 0 12.5 0 a6.25 6.25 0 1 0 -12.5 0z" fill="black"></path><path d="M718.75 375 a6.25 6.25 0 1 0 12.5 0 a6.25 6.25 0 1 0 -12.5 0zM968.75 425 a6.25 6.25 0 1 0 12.5 0 a6.25 6.25 0 1 0 -12.5 0z" fill="black"></path><path d="M118.75 1225 a6.25 6.25 0 1 0 12.5 0 a6.25 6.25 0 1 0 -12.5 0zM218.75 825 a6.25 6.25 0 1 0 12.5 0 a6.25 6.25 0 1 0 -12.5 0z" fill="black"></path><path d="M1718.75 925 a6.25 6.25 0 1 0 12.5 0 a6.25 6.25 0 1 0 -12.5 0zM1418.75 1025 a6.25 6.25 0 1 0 12.5 0 a6.25 6.25 0 1 0 -12.5 0z" fill="black"></path><path d="M918.75 1275 a6.25 6.25 0 1 0 12.5 0 a6.25 6.25 0 1 0 -12.5 0zM568.75 1325 a6.25 6.25 0 1 0 12.5 0 a6.25 6.25 0 1 0 -12.5 0z" fill="black"></path><path d="M1568.75 275 a6.25 6.25 0 1 0 12.5 0 a6.25 6.25 0 1 0 -12.5 0zM1668.75 275 a6.25 6.25 0 1 0 12.5 0 a6.25 6.25 0 1 0 -12.5 0z" fill="black"></path><path d="M18.75 725 a6.25 6.25 0 1 0 12.5 0 a6.25 6.25 0 1 0 -12.5 0zM168.75 725 a6.25 6.25 0 1 0 12.5 0 a6.25 6.25 0 1 0 -12.5 0z" fill="black"></path><path d="M1618.75 1375 a6.25 6.25 0 1 0 12.5 0 a6.25 6.25 0 1 0 -12.5 0zM1518.75 1375 a6.25 6.25 0 1 0 12.5 0 a6.25 6.25 0 1 0 -12.5 0z" fill="black"></path><path d="M1318.75 175 a6.25 6.25 0 1 0 12.5 0 a6.25 6.25 0 1 0 -12.5 0zM1468.75 75 a6.25 6.25 0 1 0 12.5 0 a6.25 6.25 0 1 0 -12.5 0z" fill="black"></path><path d="M1918.75 1875 a6.25 6.25 0 1 0 12.5 0 a6.25 6.25 0 1 0 -12.5 0zM1818.75 1925 a6.25 6.25 0 1 0 12.5 0 a6.25 6.25 0 1 0 -12.5 0z" fill="black"></path><path d="M768.75 1025 a6.25 6.25 0 1 0 12.5 0 a6.25 6.25 0 1 0 -12.5 0zM768.75 925 a6.25 6.25 0 1 0 12.5 0 a6.25 6.25 0 1 0 -12.5 0z" fill="black"></path><path d="M168.75 1175 a6.25 6.25 0 1 0 12.5 0 a6.25 6.25 0 1 0 -12.5 0zM218.75 1275 a6.25 6.25 0 1 0 12.5 0 a6.25 6.25 0 1 0 -12.5 0z" fill="black"></path><path d="M418.75 1025 a6.25 6.25 0 1 0 12.5 0 a6.25 6.25 0 1 0 -12.5 0zM418.75 1125 a6.25 6.25 0 1 0 12.5 0 a6.25 6.25 0 1 0 -12.5 0z" fill="black"></path><path d="M1318.75 825 a6.25 6.25 0 1 0 12.5 0 a6.25 6.25 0 1 0 -12.5 0zM1318.75 975 a6.25 6.25 0 1 0 12.5 0 a6.25 6.25 0 1 0 -12.5 0z" fill="black"></path><path d="M68.75 1775 a6.25 6.25 0 1 0 12.5 0 a6.25 6.25 0 1 0 -12.5 0zM68.75 1675 a6.25 6.25 0 1 0 12.5 0 a6.25 6.25 0 1 0 -12.5 0z" fill="black"></path><path d="M368.75 1025 a6.25 6.25 0 1 0 12.5 0 a6.25 6.25 0 1 0 -12.5 0zM368.75 1125 a6.25 6.25 0 1 0 12.5 0 a6.25 6.25 0 1 0 -12.5 0z" fill="black"></path><path d="M668.75 1575 a6.25 6.25 0 1 0 12.5 0 a6.25 6.25 0 1 0 -12.5 0zM568.75 1575 a6.25 6.25 0 1 0 12.5 0 a6.25 6.25 0 1 0 -12.5 0z" fill="black"></path><path d="M668.75 275 a6.25 6.25 0 1 0 12.5 0 a6.25 6.25 0 1 0 -12.5 0zM668.75 425 a6.25 6.25 0 1 0 12.5 0 a6.25 6.25 0 1 0 -12.5 0z" fill="black"></path><path d="M1518.75 1525 a6.25 6.25 0 1 0 12.5 0 a6.25 6.25 0 1 0 -12.5 0zM1518.75 1425 a6.25 6.25 0 1 0 12.5 0 a6.25 6.25 0 1 0 -12.5 0z" fill="black"></path><path d="M1268.75 1475 a6.25 6.25 0 1 0 12.5 0 a6.25 6.25 0 1 0 -12.5 0zM1168.75 1375 a6.25 6.25 0 1 0 12.5 0 a6.25 6.25 0 1 0 -12.5 0z" fill="black"></path><path d="M168.75 1025 a6.25 6.25 0 1 0 12.5 0 a6.25 6.25 0 1 0 -12.5 0zM118.75 1175 a6.25 6.25 0 1 0 12.5 0 a6.25 6.25 0 1 0 -12.5 0z" fill="black"></path><path d="M218.75 1525 a6.25 6.25 0 1 0 12.5 0 a6.25 6.25 0 1 0 -12.5 0zM118.75 1625 a6.25 6.25 0 1 0 12.5 0 a6.25 6.25 0 1 0 -12.5 0z" fill="black"></path><path d="M668.75 1325 a6.25 6.25 0 1 0 12.5 0 a6.25 6.25 0 1 0 -12.5 0zM818.75 1225 a6.25 6.25 0 1 0 12.5 0 a6.25 6.25 0 1 0 -12.5 0z" fill="black"></path><path d="M768.75 75 a6.25 6.25 0 1 0 12.5 0 a6.25 6.25 0 1 0 -12.5 0zM1018.75 75 a6.25 6.25 0 1 0 12.5 0 a6.25 6.25 0 1 0 -12.5 0z" fill="black"></path><path d="M218.75 375 a6.25 6.25 0 1 0 12.5 0 a6.25 6.25 0 1 0 -12.5 0zM318.75 425 a6.25 6.25 0 1 0 12.5 0 a6.25 6.25 0 1 0 -12.5 0z" fill="black"></path><path d="M1518.75 1125 a6.25 6.25 0 1 0 12.5 0 a6.25 6.25 0 1 0 -12.5 0zM1618.75 1125 a6.25 6.25 0 1 0 12.5 0 a6.25 6.25 0 1 0 -12.5 0z" fill="black"></path><path d="M1068.75 1275 a6.25 6.25 0 1 0 12.5 0 a6.25 6.25 0 1 0 -12.5 0zM968.75 1175 a6.25 6.25 0 1 0 12.5 0 a6.25 6.25 0 1 0 -12.5 0z" fill="black"></path><path d="M618.75 425 a6.25 6.25 0 1 0 12.5 0 a6.25 6.25 0 1 0 -12.5 0zM618.75 275 a6.25 6.25 0 1 0 12.5 0 a6.25 6.25 0 1 0 -12.5 0z" fill="black"></path><path d="M18.75 1875 a6.25 6.25 0 1 0 12.5 0 a6.25 6.25 0 1 0 -12.5 0zM168.75 1875 a6.25 6.25 0 1 0 12.5 0 a6.25 6.25 0 1 0 -12.5 0z" fill="black"></path><path d="M468.75 125 a6.25 6.25 0 1 0 12.5 0 a6.25 6.25 0 1 0 -12.5 0zM518.75 225 a6.25 6.25 0 1 0 12.5 0 a6.25 6.25 0 1 0 -12.5 0z" fill="black"></path><path d="M1718.75 875 a6.25 6.25 0 1 0 12.5 0 a6.25 6.25 0 1 0 -12.5 0zM1568.75 975 a6.25 6.25 0 1 0 12.5 0 a6.25 6.25 0 1 0 -12.5 0z" fill="black"></path><path d="M368.75 975 a6.25 6.25 0 1 0 12.5 0 a6.25 6.25 0 1 0 -12.5 0zM368.75 875 a6.25 6.25 0 1 0 12.5 0 a6.25 6.25 0 1 0 -12.5 0z" fill="black"></path><path d="M1868.75 1775 a6.25 6.25 0 1 0 12.5 0 a6.25 6.25 0 1 0 -12.5 0zM1768.75 1625 a6.25 6.25 0 1 0 12.5 0 a6.25 6.25 0 1 0 -12.5 0z" fill="black"></path><path d="M768.75 1325 a6.25 6.25 0 1 0 12.5 0 a6.25 6.25 0 1 0 -12.5 0zM818.75 1425 a6.25 6.25 0 1 0 12.5 0 a6.25 6.25 0 1 0 -12.5 0z" fill="black"></path><path d="M1218.75 1025 a6.25 6.25 0 1 0 12.5 0 a6.25 6.25 0 1 0 -12.5 0zM1368.75 1225 a6.25 6.25 0 1 0 12.5 0 a6.25 6.25 0 1 0 -12.5 0z" fill="black"></path><path d="M1868.75 1425 a6.25 6.25 0 1 0 12.5 0 a6.25 6.25 0 1 0 -12.5 0zM1768.75 1425 a6.25 6.25 0 1 0 12.5 0 a6.25 6.25 0 1 0 -12.5 0z" fill="black"></path><path d="M1468.75 725 a6.25 6.25 0 1 0 12.5 0 a6.25 6.25 0 1 0 -12.5 0zM1318.75 675 a6.25 6.25 0 1 0 12.5 0 a6.25 6.25 0 1 0 -12.5 0z" fill="black"></path><path d="M1218.75 1125 a6.25 6.25 0 1 0 12.5 0 a6.25 6.25 0 1 0 -12.5 0zM1068.75 975 a6.25 6.25 0 1 0 12.5 0 a6.25 6.25 0 1 0 -12.5 0z" fill="black"></path><path d="M1718.75 375 a6.25 6.25 0 1 0 12.5 0 a6.25 6.25 0 1 0 -12.5 0zM1468.75 475 a6.25 6.25 0 1 0 12.5 0 a6.25 6.25 0 1 0 -12.5 0z" fill="black"></path><path d="M1218.75 1625 a6.25 6.25 0 1 0 12.5 0 a6.25 6.25 0 1 0 -12.5 0zM1118.75 1525 a6.25 6.25 0 1 0 12.5 0 a6.25 6.25 0 1 0 -12.5 0z" fill="black"></path><path d="M518.75 675 a6.25 6.25 0 1 0 12.5 0 a6.25 6.25 0 1 0 -12.5 0zM318.75 675 a6.25 6.25 0 1 0 12.5 0 a6.25 6.25 0 1 0 -12.5 0z" fill="black"></path><path d="M1768.75 1175 a6.25 6.25 0 1 0 12.5 0 a6.25 6.25 0 1 0 -12.5 0zM1818.75 1025 a6.25 6.25 0 1 0 12.5 0 a6.25 6.25 0 1 0 -12.5 0z" fill="black"></path><path d="M1718.75 1175 a6.25 6.25 0 1 0 12.5 0 a6.25 6.25 0 1 0 -12.5 0zM1768.75 1075 a6.25 6.25 0 1 0 12.5 0 a6.25 6.25 0 1 0 -12.5 0z" fill="black"></path><path d="M1068.75 725 a6.25 6.25 0 1 0 12.5 0 a6.25 6.25 0 1 0 -12.5 0zM968.75 725 a6.25 6.25 0 1 0 12.5 0 a6.25 6.25 0 1 0 -12.5 0z" fill="black"></path><path d="M1118.75 625 a6.25 6.25 0 1 0 12.5 0 a6.25 6.25 0 1 0 -12.5 0zM1218.75 725 a6.25 6.25 0 1 0 12.5 0 a6.25 6.25 0 1 0 -12.5 0z" fill="black"></path><path d="M1168.75 875 a6.25 6.25 0 1 0 12.5 0 a6.25 6.25 0 1 0 -12.5 0zM1018.75 775 a6.25 6.25 0 1 0 12.5 0 a6.25 6.25 0 1 0 -12.5 0z" fill="black"></path><path d="M118.75 1025 a6.25 6.25 0 1 0 12.5 0 a6.25 6.25 0 1 0 -12.5 0zM118.75 925 a6.25 6.25 0 1 0 12.5 0 a6.25 6.25 0 1 0 -12.5 0z" fill="black"></path><path d="M1168.75 275 a6.25 6.25 0 1 0 12.5 0 a6.25 6.25 0 1 0 -12.5 0zM1318.75 225 a6.25 6.25 0 1 0 12.5 0 a6.25 6.25 0 1 0 -12.5 0z" fill="black"></path></mask></defs></svg>