<svg width="85" height="147" viewBox="0 0 85 147" fill="none" xmlns="http://www.w3.org/2000/svg">
<path d="M38.5 69.625V91.8125H82.875V106.438H38.5V128.625H82.875V144H21.25V54.25H82.875V69.625H38.5Z" fill="#1B96F3" stroke="#1B96F3" stroke-width="3"/>
<path d="M67.875 24.25H6.25L21.25 54.25H82.875L67.875 24.25Z" fill="#1B96F3" stroke="#1B96F3" stroke-width="3" stroke-linejoin="round"/>
<path d="M23.5 61.8125V39.625L38.5 69.625V91.8125L23.5 61.8125Z" fill="white" stroke="#1B96F3" stroke-width="3" stroke-linejoin="round"/>
<path d="M23.5 39.625H67.875L82.875 69.625H38.5L23.5 39.625Z" fill="#1B96F3" stroke="#1B96F3" stroke-width="3" stroke-linejoin="round"/>
<path d="M67.875 39.625V24.25L82.875 54.25V69.625L67.875 39.625Z" fill="white" stroke="#1B96F3" stroke-width="3" stroke-linejoin="round"/>
<path d="M6.25 24.25V114L21.25 144V54.25L6.25 24.25Z" fill="#1B96F3" stroke="#1B96F3" stroke-width="3" stroke-linejoin="round"/>
<path d="M67.875 61.8125H23.5L38.5 91.8125H82.875L67.875 61.8125Z" fill="#1B96F3" stroke="#1B96F3" stroke-width="3" stroke-linejoin="round"/>
<path d="M23.5 76.4375H67.875L82.875 106.438H38.5L23.5 76.4375Z" fill="#1B96F3" stroke="#1B96F3" stroke-width="3" stroke-linejoin="round"/>
<path d="M23.5 98.625V76.4375L38.5 106.438V128.625L23.5 98.625Z" fill="white" stroke="#1B96F3" stroke-width="3" stroke-linejoin="round"/>
<path d="M67.875 76.4375V61.8125L82.875 91.8125V106.438L67.875 76.4375Z" fill="white" stroke="#1B96F3" stroke-width="3" stroke-linejoin="round"/>
<path d="M67.875 98.625H23.5L38.5 128.625H82.875L67.875 98.625Z" fill="#1B96F3" stroke="#1B96F3" stroke-width="3" stroke-linejoin="round"/>
<path d="M6.25 114H67.875L82.875 144H21.25L6.25 114Z" fill="#1B96F3" stroke="#1B96F3" stroke-width="3" stroke-linejoin="round"/>
<path d="M67.875 114V98.625L82.875 128.625V144L67.875 114Z" fill="white" stroke="#1B96F3" stroke-width="3" stroke-linejoin="round"/>
<path d="M23.5 39.625V61.8125H67.875V76.4375H23.5V98.625H67.875V114H6.25V24.25H67.875V39.625H23.5Z" fill="white"/>
<path d="M23.5 39.625V38.125H22V39.625H23.5ZM23.5 61.8125H22V63.3125H23.5V61.8125ZM67.875 61.8125H69.375V60.3125H67.875V61.8125ZM67.875 76.4375V77.9375H69.375V76.4375H67.875ZM23.5 76.4375V74.9375H22V76.4375H23.5ZM23.5 98.625H22V100.125H23.5V98.625ZM67.875 98.625H69.375V97.125H67.875V98.625ZM67.875 114V115.5H69.375V114H67.875ZM6.25 114H4.75V115.5H6.25V114ZM6.25 24.25V22.75H4.75V24.25H6.25ZM67.875 24.25H69.375V22.75H67.875V24.25ZM67.875 39.625V41.125H69.375V39.625H67.875ZM22 39.625V61.8125H25V39.625H22ZM23.5 63.3125H67.875V60.3125H23.5V63.3125ZM66.375 61.8125V76.4375H69.375V61.8125H66.375ZM67.875 74.9375H23.5V77.9375H67.875V74.9375ZM22 76.4375V98.625H25V76.4375H22ZM23.5 100.125H67.875V97.125H23.5V100.125ZM66.375 98.625V114H69.375V98.625H66.375ZM67.875 112.5H6.25V115.5H67.875V112.5ZM7.75 114V24.25H4.75V114H7.75ZM6.25 25.75H67.875V22.75H6.25V25.75ZM66.375 24.25V39.625H69.375V24.25H66.375ZM67.875 38.125H23.5V41.125H67.875V38.125Z" fill="#1B96F3"/>
</svg>
