<svg width="527" height="162" viewBox="0 0 527 162" fill="none" xmlns="http://www.w3.org/2000/svg">
<path d="M23.5 39.625V61.8125H67.875V76.4375H23.5V98.625H67.875V114H6.25V24.25H67.875V39.625H23.5ZM97.625 39.625V61.8125H125.812V39.625H97.625ZM80.375 114V24.25H142V76.4375H120.938L142 114H125.812L103.688 76.4375H97.625V114H80.375ZM171.75 39.625V61.8125H216.125V76.4375H171.75V98.625H216.125V114H154.5V24.25H216.125V39.625H171.75ZM228.625 76.4375V24.25H290.25V39.625H245.875V61.8125H290.25V114H228.625V98.625H274.062V76.4375H228.625ZM320 98.625H364.375V114H302.75V24.25H364.375V39.625H320V98.625ZM438.5 24.25V114H376.875V24.25H438.5ZM422.312 39.625H394.125V98.625H422.312V39.625ZM468.25 114H451V24.25H468.25L485.75 73.4375L503.938 24.25H520.125V114H503.938V76.4375L491.375 114H481.25L468.25 76.4375V114Z" fill="white"/>
<path d="M23.5 39.625V37.625H21.5V39.625H23.5ZM23.5 61.8125H21.5V63.8125H23.5V61.8125ZM67.875 61.8125H69.875V59.8125H67.875V61.8125ZM67.875 76.4375V78.4375H69.875V76.4375H67.875ZM23.5 76.4375V74.4375H21.5V76.4375H23.5ZM23.5 98.625H21.5V100.625H23.5V98.625ZM67.875 98.625H69.875V96.625H67.875V98.625ZM67.875 114V116H69.875V114H67.875ZM6.25 114H4.25V116H6.25V114ZM6.25 24.25V22.25H4.25V24.25H6.25ZM67.875 24.25H69.875V22.25H67.875V24.25ZM67.875 39.625V41.625H69.875V39.625H67.875ZM21.5 39.625V61.8125H25.5V39.625H21.5ZM23.5 63.8125H67.875V59.8125H23.5V63.8125ZM65.875 61.8125V76.4375H69.875V61.8125H65.875ZM67.875 74.4375H23.5V78.4375H67.875V74.4375ZM21.5 76.4375V98.625H25.5V76.4375H21.5ZM23.5 100.625H67.875V96.625H23.5V100.625ZM65.875 98.625V114H69.875V98.625H65.875ZM67.875 112H6.25V116H67.875V112ZM8.25 114V24.25H4.25V114H8.25ZM6.25 26.25H67.875V22.25H6.25V26.25ZM65.875 24.25V39.625H69.875V24.25H65.875ZM67.875 37.625H23.5V41.625H67.875V37.625ZM97.625 39.625V37.625H95.625V39.625H97.625ZM97.625 61.8125H95.625V63.8125H97.625V61.8125ZM125.812 61.8125V63.8125H127.812V61.8125H125.812ZM125.812 39.625H127.812V37.625H125.812V39.625ZM80.375 114H78.375V116H80.375V114ZM80.375 24.25V22.25H78.375V24.25H80.375ZM142 24.25H144V22.25H142V24.25ZM142 76.4375V78.4375H144V76.4375H142ZM120.938 76.4375V74.4375H117.523L119.193 77.4157L120.938 76.4375ZM142 114V116H145.414L143.744 113.022L142 114ZM125.812 114L124.089 115.015L124.669 116H125.812V114ZM103.688 76.4375L105.411 75.4225L104.831 74.4375H103.688V76.4375ZM97.625 76.4375V74.4375H95.625V76.4375H97.625ZM97.625 114V116H99.625V114H97.625ZM95.625 39.625V61.8125H99.625V39.625H95.625ZM97.625 63.8125H125.812V59.8125H97.625V63.8125ZM127.812 61.8125V39.625H123.812V61.8125H127.812ZM125.812 37.625H97.625V41.625H125.812V37.625ZM82.375 114V24.25H78.375V114H82.375ZM80.375 26.25H142V22.25H80.375V26.25ZM140 24.25V76.4375H144V24.25H140ZM142 74.4375H120.938V78.4375H142V74.4375ZM119.193 77.4157L140.256 114.978L143.744 113.022L122.682 75.4593L119.193 77.4157ZM142 112H125.812V116H142V112ZM127.536 112.985L105.411 75.4225L101.964 77.4525L124.089 115.015L127.536 112.985ZM103.688 74.4375H97.625V78.4375H103.688V74.4375ZM95.625 76.4375V114H99.625V76.4375H95.625ZM97.625 112H80.375V116H97.625V112ZM171.75 39.625V37.625H169.75V39.625H171.75ZM171.75 61.8125H169.75V63.8125H171.75V61.8125ZM216.125 61.8125H218.125V59.8125H216.125V61.8125ZM216.125 76.4375V78.4375H218.125V76.4375H216.125ZM171.75 76.4375V74.4375H169.75V76.4375H171.75ZM171.75 98.625H169.75V100.625H171.75V98.625ZM216.125 98.625H218.125V96.625H216.125V98.625ZM216.125 114V116H218.125V114H216.125ZM154.5 114H152.5V116H154.5V114ZM154.5 24.25V22.25H152.5V24.25H154.5ZM216.125 24.25H218.125V22.25H216.125V24.25ZM216.125 39.625V41.625H218.125V39.625H216.125ZM169.75 39.625V61.8125H173.75V39.625H169.75ZM171.75 63.8125H216.125V59.8125H171.75V63.8125ZM214.125 61.8125V76.4375H218.125V61.8125H214.125ZM216.125 74.4375H171.75V78.4375H216.125V74.4375ZM169.75 76.4375V98.625H173.75V76.4375H169.75ZM171.75 100.625H216.125V96.625H171.75V100.625ZM214.125 98.625V114H218.125V98.625H214.125ZM216.125 112H154.5V116H216.125V112ZM156.5 114V24.25H152.5V114H156.5ZM154.5 26.25H216.125V22.25H154.5V26.25ZM214.125 24.25V39.625H218.125V24.25H214.125ZM216.125 37.625H171.75V41.625H216.125V37.625ZM228.625 76.4375H226.625V78.4375H228.625V76.4375ZM228.625 24.25V22.25H226.625V24.25H228.625ZM290.25 24.25H292.25V22.25H290.25V24.25ZM290.25 39.625V41.625H292.25V39.625H290.25ZM245.875 39.625V37.625H243.875V39.625H245.875ZM245.875 61.8125H243.875V63.8125H245.875V61.8125ZM290.25 61.8125H292.25V59.8125H290.25V61.8125ZM290.25 114V116H292.25V114H290.25ZM228.625 114H226.625V116H228.625V114ZM228.625 98.625V96.625H226.625V98.625H228.625ZM274.062 98.625V100.625H276.062V98.625H274.062ZM274.062 76.4375H276.062V74.4375H274.062V76.4375ZM230.625 76.4375V24.25H226.625V76.4375H230.625ZM228.625 26.25H290.25V22.25H228.625V26.25ZM288.25 24.25V39.625H292.25V24.25H288.25ZM290.25 37.625H245.875V41.625H290.25V37.625ZM243.875 39.625V61.8125H247.875V39.625H243.875ZM245.875 63.8125H290.25V59.8125H245.875V63.8125ZM288.25 61.8125V114H292.25V61.8125H288.25ZM290.25 112H228.625V116H290.25V112ZM230.625 114V98.625H226.625V114H230.625ZM228.625 100.625H274.062V96.625H228.625V100.625ZM276.062 98.625V76.4375H272.062V98.625H276.062ZM274.062 74.4375H228.625V78.4375H274.062V74.4375ZM320 98.625H318V100.625H320V98.625ZM364.375 98.625H366.375V96.625H364.375V98.625ZM364.375 114V116H366.375V114H364.375ZM302.75 114H300.75V116H302.75V114ZM302.75 24.25V22.25H300.75V24.25H302.75ZM364.375 24.25H366.375V22.25H364.375V24.25ZM364.375 39.625V41.625H366.375V39.625H364.375ZM320 39.625V37.625H318V39.625H320ZM320 100.625H364.375V96.625H320V100.625ZM362.375 98.625V114H366.375V98.625H362.375ZM364.375 112H302.75V116H364.375V112ZM304.75 114V24.25H300.75V114H304.75ZM302.75 26.25H364.375V22.25H302.75V26.25ZM362.375 24.25V39.625H366.375V24.25H362.375ZM364.375 37.625H320V41.625H364.375V37.625ZM318 39.625V98.625H322V39.625H318ZM438.5 24.25H440.5V22.25H438.5V24.25ZM438.5 114V116H440.5V114H438.5ZM376.875 114H374.875V116H376.875V114ZM376.875 24.25V22.25H374.875V24.25H376.875ZM422.312 39.625H424.312V37.625H422.312V39.625ZM394.125 39.625V37.625H392.125V39.625H394.125ZM394.125 98.625H392.125V100.625H394.125V98.625ZM422.312 98.625V100.625H424.312V98.625H422.312ZM436.5 24.25V114H440.5V24.25H436.5ZM438.5 112H376.875V116H438.5V112ZM378.875 114V24.25H374.875V114H378.875ZM376.875 26.25H438.5V22.25H376.875V26.25ZM422.312 37.625H394.125V41.625H422.312V37.625ZM392.125 39.625V98.625H396.125V39.625H392.125ZM394.125 100.625H422.312V96.625H394.125V100.625ZM424.312 98.625V39.625H420.312V98.625H424.312ZM468.25 114V116H470.25V114H468.25ZM451 114H449V116H451V114ZM451 24.25V22.25H449V24.25H451ZM468.25 24.25L470.134 23.5796L469.661 22.25H468.25V24.25ZM485.75 73.4375L483.866 74.1079L485.714 79.3023L487.626 74.1311L485.75 73.4375ZM503.938 24.25V22.25H502.545L502.062 23.5564L503.938 24.25ZM520.125 24.25H522.125V22.25H520.125V24.25ZM520.125 114V116H522.125V114H520.125ZM503.938 114H501.938V116H503.938V114ZM503.938 76.4375H505.938L502.041 75.8032L503.938 76.4375ZM491.375 114V116H492.815L493.272 114.634L491.375 114ZM481.25 114L479.36 114.654L479.826 116H481.25V114ZM468.25 76.4375L470.14 75.7834L466.25 76.4375H468.25ZM468.25 112H451V116H468.25V112ZM453 114V24.25H449V114H453ZM451 26.25H468.25V22.25H451V26.25ZM466.366 24.9204L483.866 74.1079L487.634 72.7671L470.134 23.5796L466.366 24.9204ZM487.626 74.1311L505.813 24.9436L502.062 23.5564L483.874 72.7439L487.626 74.1311ZM503.938 26.25H520.125V22.25H503.938V26.25ZM518.125 24.25V114H522.125V24.25H518.125ZM520.125 112H503.938V116H520.125V112ZM505.938 114V76.4375H501.938V114H505.938ZM502.041 75.8032L489.478 113.366L493.272 114.634L505.834 77.0718L502.041 75.8032ZM491.375 112H481.25V116H491.375V112ZM483.14 113.346L470.14 75.7834L466.36 77.0916L479.36 114.654L483.14 113.346ZM466.25 76.4375V114H470.25V76.4375H466.25Z" fill="#1B96F3"/>
<path d="M220.048 129.704V136.232H227.728V139.208H220.048V146.024H228.688V149H216.4V126.728H228.688V129.704H220.048ZM240.509 149.224C239.016 149.224 237.672 148.968 236.477 148.456C235.283 147.923 234.344 147.176 233.661 146.216C232.979 145.256 232.637 144.136 232.637 142.856H236.541C236.627 143.816 237 144.605 237.661 145.224C238.344 145.843 239.293 146.152 240.509 146.152C241.768 146.152 242.749 145.853 243.453 145.256C244.157 144.637 244.509 143.848 244.509 142.888C244.509 142.141 244.285 141.533 243.837 141.064C243.411 140.595 242.867 140.232 242.205 139.976C241.565 139.72 240.669 139.443 239.517 139.144C238.067 138.76 236.883 138.376 235.965 137.992C235.069 137.587 234.301 136.968 233.661 136.136C233.021 135.304 232.701 134.195 232.701 132.808C232.701 131.528 233.021 130.408 233.661 129.448C234.301 128.488 235.197 127.752 236.349 127.24C237.501 126.728 238.835 126.472 240.349 126.472C242.504 126.472 244.264 127.016 245.629 128.104C247.016 129.171 247.784 130.643 247.933 132.52H243.901C243.837 131.709 243.453 131.016 242.749 130.44C242.045 129.864 241.117 129.576 239.965 129.576C238.92 129.576 238.067 129.843 237.405 130.376C236.744 130.909 236.413 131.677 236.413 132.68C236.413 133.363 236.616 133.928 237.021 134.376C237.448 134.803 237.981 135.144 238.621 135.4C239.261 135.656 240.136 135.933 241.245 136.232C242.717 136.637 243.912 137.043 244.829 137.448C245.768 137.853 246.557 138.483 247.197 139.336C247.859 140.168 248.189 141.288 248.189 142.696C248.189 143.827 247.88 144.893 247.261 145.896C246.664 146.899 245.779 147.709 244.605 148.328C243.453 148.925 242.088 149.224 240.509 149.224ZM259.758 126.76C262.126 126.76 264.195 127.219 265.966 128.136C267.758 129.032 269.134 130.333 270.094 132.04C271.075 133.725 271.566 135.699 271.566 137.96C271.566 140.221 271.075 142.184 270.094 143.848C269.134 145.512 267.758 146.792 265.966 147.688C264.195 148.563 262.126 149 259.758 149H252.494V126.76H259.758ZM259.758 146.024C262.36 146.024 264.355 145.32 265.742 143.912C267.128 142.504 267.822 140.52 267.822 137.96C267.822 135.379 267.128 133.363 265.742 131.912C264.355 130.461 262.36 129.736 259.758 129.736H256.142V146.024H259.758Z" fill="black"/>
<circle cx="297" cy="138" r="6" stroke="#FC1B51" stroke-width="4"/>
<circle cx="190" cy="138" r="6" stroke="#FC1B51" stroke-width="4"/>
<path d="M338.952 133.384C338.952 134.515 338.685 135.581 338.152 136.584C337.619 137.587 336.765 138.408 335.592 139.048C334.419 139.667 332.915 139.976 331.08 139.976H327.048V149H323.4V126.76H331.08C332.787 126.76 334.227 127.059 335.4 127.656C336.595 128.232 337.48 129.021 338.056 130.024C338.653 131.027 338.952 132.147 338.952 133.384ZM331.08 137C332.467 137 333.501 136.691 334.184 136.072C334.867 135.432 335.208 134.536 335.208 133.384C335.208 130.952 333.832 129.736 331.08 129.736H327.048V137H331.08ZM355.839 144.456H346.527L344.927 149H341.119L349.087 126.728H353.311L361.279 149H357.439L355.839 144.456ZM354.815 141.48L351.199 131.144L347.551 141.48H354.815ZM354.495 121.992L347.423 125.48V122.792L354.495 118.888V121.992ZM376.872 126.76V142.792C376.872 144.776 376.264 146.344 375.048 147.496C373.853 148.648 372.274 149.224 370.312 149.224C368.349 149.224 366.76 148.648 365.544 147.496C364.349 146.344 363.752 144.776 363.752 142.792H367.432C367.453 143.773 367.698 144.552 368.168 145.128C368.658 145.704 369.373 145.992 370.312 145.992C371.25 145.992 371.965 145.704 372.456 145.128C372.946 144.531 373.192 143.752 373.192 142.792V126.76H376.872ZM386.454 129.704V136.232H394.134V139.208H386.454V146.024H395.094V149H382.806V126.728H395.094V129.704H386.454ZM417.86 149H414.212L403.236 132.392V149H399.588V126.728H403.236L414.212 143.304V126.728H417.86V149ZM426.298 126.76V149H422.65V126.76H426.298ZM427.77 121.992L420.698 125.48V122.792L427.77 118.888V121.992Z" fill="black"/>
<path d="M109.728 149.224C108.235 149.224 106.891 148.968 105.696 148.456C104.501 147.923 103.563 147.176 102.88 146.216C102.197 145.256 101.856 144.136 101.856 142.856H105.76C105.845 143.816 106.219 144.605 106.88 145.224C107.563 145.843 108.512 146.152 109.728 146.152C110.987 146.152 111.968 145.853 112.672 145.256C113.376 144.637 113.728 143.848 113.728 142.888C113.728 142.141 113.504 141.533 113.056 141.064C112.629 140.595 112.085 140.232 111.424 139.976C110.784 139.72 109.888 139.443 108.736 139.144C107.285 138.76 106.101 138.376 105.184 137.992C104.288 137.587 103.52 136.968 102.88 136.136C102.24 135.304 101.92 134.195 101.92 132.808C101.92 131.528 102.24 130.408 102.88 129.448C103.52 128.488 104.416 127.752 105.568 127.24C106.72 126.728 108.053 126.472 109.568 126.472C111.723 126.472 113.483 127.016 114.848 128.104C116.235 129.171 117.003 130.643 117.152 132.52H113.12C113.056 131.709 112.672 131.016 111.968 130.44C111.264 129.864 110.336 129.576 109.184 129.576C108.139 129.576 107.285 129.843 106.624 130.376C105.963 130.909 105.632 131.677 105.632 132.68C105.632 133.363 105.835 133.928 106.24 134.376C106.667 134.803 107.2 135.144 107.84 135.4C108.48 135.656 109.355 135.933 110.464 136.232C111.936 136.637 113.131 137.043 114.048 137.448C114.987 137.853 115.776 138.483 116.416 139.336C117.077 140.168 117.408 141.288 117.408 142.696C117.408 143.827 117.099 144.893 116.48 145.896C115.883 146.899 114.997 147.709 113.824 148.328C112.672 148.925 111.307 149.224 109.728 149.224ZM145.137 126.76V149H141.489V133.768L134.705 149H132.177L125.361 133.768V149H121.713V126.76H125.649L133.457 144.2L141.233 126.76H145.137ZM164.299 126.76V129.736H158.379V149H154.731V129.736H148.779V126.76H164.299Z" fill="black"/>
</svg>
