<svg width="640" height="192" viewBox="0 0 640 192" fill="none" xmlns="http://www.w3.org/2000/svg">
<path d="M79.5 61.625V83.8125H123.875V98.4375H79.5V120.625H123.875V136H62.25V46.25H123.875V61.625H79.5ZM153.625 61.625V83.8125H181.812V61.625H153.625ZM136.375 136V46.25H198V98.4375H176.938L198 136H181.812L159.688 98.4375H153.625V136H136.375ZM227.75 61.625V83.8125H272.125V98.4375H227.75V120.625H272.125V136H210.5V46.25H272.125V61.625H227.75ZM284.625 98.4375V46.25H346.25V61.625H301.875V83.8125H346.25V136H284.625V120.625H330.062V98.4375H284.625ZM376 120.625H420.375V136H358.75V46.25H420.375V61.625H376V120.625ZM494.5 46.25V136H432.875V46.25H494.5ZM478.312 61.625H450.125V120.625H478.312V61.625ZM524.25 136H507V46.25H524.25L541.75 95.4375L559.938 46.25H576.125V136H559.938V98.4375L547.375 136H537.25L524.25 98.4375V136Z" fill="white"/>
<path d="M79.5 61.625V59.625H77.5V61.625H79.5ZM79.5 83.8125H77.5V85.8125H79.5V83.8125ZM123.875 83.8125H125.875V81.8125H123.875V83.8125ZM123.875 98.4375V100.438H125.875V98.4375H123.875ZM79.5 98.4375V96.4375H77.5V98.4375H79.5ZM79.5 120.625H77.5V122.625H79.5V120.625ZM123.875 120.625H125.875V118.625H123.875V120.625ZM123.875 136V138H125.875V136H123.875ZM62.25 136H60.25V138H62.25V136ZM62.25 46.25V44.25H60.25V46.25H62.25ZM123.875 46.25H125.875V44.25H123.875V46.25ZM123.875 61.625V63.625H125.875V61.625H123.875ZM77.5 61.625V83.8125H81.5V61.625H77.5ZM79.5 85.8125H123.875V81.8125H79.5V85.8125ZM121.875 83.8125V98.4375H125.875V83.8125H121.875ZM123.875 96.4375H79.5V100.438H123.875V96.4375ZM77.5 98.4375V120.625H81.5V98.4375H77.5ZM79.5 122.625H123.875V118.625H79.5V122.625ZM121.875 120.625V136H125.875V120.625H121.875ZM123.875 134H62.25V138H123.875V134ZM64.25 136V46.25H60.25V136H64.25ZM62.25 48.25H123.875V44.25H62.25V48.25ZM121.875 46.25V61.625H125.875V46.25H121.875ZM123.875 59.625H79.5V63.625H123.875V59.625ZM153.625 61.625V59.625H151.625V61.625H153.625ZM153.625 83.8125H151.625V85.8125H153.625V83.8125ZM181.812 83.8125V85.8125H183.812V83.8125H181.812ZM181.812 61.625H183.812V59.625H181.812V61.625ZM136.375 136H134.375V138H136.375V136ZM136.375 46.25V44.25H134.375V46.25H136.375ZM198 46.25H200V44.25H198V46.25ZM198 98.4375V100.438H200V98.4375H198ZM176.938 98.4375V96.4375H173.523L175.193 99.4157L176.938 98.4375ZM198 136V138H201.414L199.744 135.022L198 136ZM181.812 136L180.089 137.015L180.669 138H181.812V136ZM159.688 98.4375L161.411 97.4225L160.831 96.4375H159.688V98.4375ZM153.625 98.4375V96.4375H151.625V98.4375H153.625ZM153.625 136V138H155.625V136H153.625ZM151.625 61.625V83.8125H155.625V61.625H151.625ZM153.625 85.8125H181.812V81.8125H153.625V85.8125ZM183.812 83.8125V61.625H179.812V83.8125H183.812ZM181.812 59.625H153.625V63.625H181.812V59.625ZM138.375 136V46.25H134.375V136H138.375ZM136.375 48.25H198V44.25H136.375V48.25ZM196 46.25V98.4375H200V46.25H196ZM198 96.4375H176.938V100.438H198V96.4375ZM175.193 99.4157L196.256 136.978L199.744 135.022L178.682 97.4593L175.193 99.4157ZM198 134H181.812V138H198V134ZM183.536 134.985L161.411 97.4225L157.964 99.4525L180.089 137.015L183.536 134.985ZM159.688 96.4375H153.625V100.438H159.688V96.4375ZM151.625 98.4375V136H155.625V98.4375H151.625ZM153.625 134H136.375V138H153.625V134ZM227.75 61.625V59.625H225.75V61.625H227.75ZM227.75 83.8125H225.75V85.8125H227.75V83.8125ZM272.125 83.8125H274.125V81.8125H272.125V83.8125ZM272.125 98.4375V100.438H274.125V98.4375H272.125ZM227.75 98.4375V96.4375H225.75V98.4375H227.75ZM227.75 120.625H225.75V122.625H227.75V120.625ZM272.125 120.625H274.125V118.625H272.125V120.625ZM272.125 136V138H274.125V136H272.125ZM210.5 136H208.5V138H210.5V136ZM210.5 46.25V44.25H208.5V46.25H210.5ZM272.125 46.25H274.125V44.25H272.125V46.25ZM272.125 61.625V63.625H274.125V61.625H272.125ZM225.75 61.625V83.8125H229.75V61.625H225.75ZM227.75 85.8125H272.125V81.8125H227.75V85.8125ZM270.125 83.8125V98.4375H274.125V83.8125H270.125ZM272.125 96.4375H227.75V100.438H272.125V96.4375ZM225.75 98.4375V120.625H229.75V98.4375H225.75ZM227.75 122.625H272.125V118.625H227.75V122.625ZM270.125 120.625V136H274.125V120.625H270.125ZM272.125 134H210.5V138H272.125V134ZM212.5 136V46.25H208.5V136H212.5ZM210.5 48.25H272.125V44.25H210.5V48.25ZM270.125 46.25V61.625H274.125V46.25H270.125ZM272.125 59.625H227.75V63.625H272.125V59.625ZM284.625 98.4375H282.625V100.438H284.625V98.4375ZM284.625 46.25V44.25H282.625V46.25H284.625ZM346.25 46.25H348.25V44.25H346.25V46.25ZM346.25 61.625V63.625H348.25V61.625H346.25ZM301.875 61.625V59.625H299.875V61.625H301.875ZM301.875 83.8125H299.875V85.8125H301.875V83.8125ZM346.25 83.8125H348.25V81.8125H346.25V83.8125ZM346.25 136V138H348.25V136H346.25ZM284.625 136H282.625V138H284.625V136ZM284.625 120.625V118.625H282.625V120.625H284.625ZM330.062 120.625V122.625H332.062V120.625H330.062ZM330.062 98.4375H332.062V96.4375H330.062V98.4375ZM286.625 98.4375V46.25H282.625V98.4375H286.625ZM284.625 48.25H346.25V44.25H284.625V48.25ZM344.25 46.25V61.625H348.25V46.25H344.25ZM346.25 59.625H301.875V63.625H346.25V59.625ZM299.875 61.625V83.8125H303.875V61.625H299.875ZM301.875 85.8125H346.25V81.8125H301.875V85.8125ZM344.25 83.8125V136H348.25V83.8125H344.25ZM346.25 134H284.625V138H346.25V134ZM286.625 136V120.625H282.625V136H286.625ZM284.625 122.625H330.062V118.625H284.625V122.625ZM332.062 120.625V98.4375H328.062V120.625H332.062ZM330.062 96.4375H284.625V100.438H330.062V96.4375ZM376 120.625H374V122.625H376V120.625ZM420.375 120.625H422.375V118.625H420.375V120.625ZM420.375 136V138H422.375V136H420.375ZM358.75 136H356.75V138H358.75V136ZM358.75 46.25V44.25H356.75V46.25H358.75ZM420.375 46.25H422.375V44.25H420.375V46.25ZM420.375 61.625V63.625H422.375V61.625H420.375ZM376 61.625V59.625H374V61.625H376ZM376 122.625H420.375V118.625H376V122.625ZM418.375 120.625V136H422.375V120.625H418.375ZM420.375 134H358.75V138H420.375V134ZM360.75 136V46.25H356.75V136H360.75ZM358.75 48.25H420.375V44.25H358.75V48.25ZM418.375 46.25V61.625H422.375V46.25H418.375ZM420.375 59.625H376V63.625H420.375V59.625ZM374 61.625V120.625H378V61.625H374ZM494.5 46.25H496.5V44.25H494.5V46.25ZM494.5 136V138H496.5V136H494.5ZM432.875 136H430.875V138H432.875V136ZM432.875 46.25V44.25H430.875V46.25H432.875ZM478.312 61.625H480.312V59.625H478.312V61.625ZM450.125 61.625V59.625H448.125V61.625H450.125ZM450.125 120.625H448.125V122.625H450.125V120.625ZM478.312 120.625V122.625H480.312V120.625H478.312ZM492.5 46.25V136H496.5V46.25H492.5ZM494.5 134H432.875V138H494.5V134ZM434.875 136V46.25H430.875V136H434.875ZM432.875 48.25H494.5V44.25H432.875V48.25ZM478.312 59.625H450.125V63.625H478.312V59.625ZM448.125 61.625V120.625H452.125V61.625H448.125ZM450.125 122.625H478.312V118.625H450.125V122.625ZM480.312 120.625V61.625H476.312V120.625H480.312ZM524.25 136V138H526.25V136H524.25ZM507 136H505V138H507V136ZM507 46.25V44.25H505V46.25H507ZM524.25 46.25L526.134 45.5796L525.661 44.25H524.25V46.25ZM541.75 95.4375L539.866 96.1079L541.714 101.302L543.626 96.1311L541.75 95.4375ZM559.938 46.25V44.25H558.545L558.062 45.5564L559.938 46.25ZM576.125 46.25H578.125V44.25H576.125V46.25ZM576.125 136V138H578.125V136H576.125ZM559.938 136H557.938V138H559.938V136ZM559.938 98.4375H561.938L558.041 97.8032L559.938 98.4375ZM547.375 136V138H548.815L549.272 136.634L547.375 136ZM537.25 136L535.36 136.654L535.826 138H537.25V136ZM524.25 98.4375L526.14 97.7834L522.25 98.4375H524.25ZM524.25 134H507V138H524.25V134ZM509 136V46.25H505V136H509ZM507 48.25H524.25V44.25H507V48.25ZM522.366 46.9204L539.866 96.1079L543.634 94.7671L526.134 45.5796L522.366 46.9204ZM543.626 96.1311L561.813 46.9436L558.062 45.5564L539.874 94.7439L543.626 96.1311ZM559.938 48.25H576.125V44.25H559.938V48.25ZM574.125 46.25V136H578.125V46.25H574.125ZM576.125 134H559.938V138H576.125V134ZM561.938 136V98.4375H557.938V136H561.938ZM558.041 97.8032L545.478 135.366L549.272 136.634L561.834 99.0718L558.041 97.8032ZM547.375 134H537.25V138H547.375V134ZM539.14 135.346L526.14 97.7834L522.36 99.0916L535.36 136.654L539.14 135.346ZM522.25 98.4375V136H526.25V98.4375H522.25Z" fill="#1B96F3"/>
</svg>
