<svg width="550" height="147" viewBox="0 0 550 147" fill="none" xmlns="http://www.w3.org/2000/svg">
<path d="M38.5 69.625V91.8125H82.875V106.438H38.5V128.625H82.875V144H21.25V54.25H82.875V69.625H38.5Z" fill="#1B96F3" stroke="#1B96F3" stroke-width="3"/>
<path d="M67.875 24.25H6.25L21.25 54.25H82.875L67.875 24.25Z" fill="#1B96F3" stroke="#1B96F3" stroke-width="3" stroke-linejoin="round"/>
<path d="M23.5 61.8125V39.625L38.5 69.625V91.8125L23.5 61.8125Z" fill="white" stroke="#1B96F3" stroke-width="3" stroke-linejoin="round"/>
<path d="M23.5 39.625H67.875L82.875 69.625H38.5L23.5 39.625Z" fill="#1B96F3" stroke="#1B96F3" stroke-width="3" stroke-linejoin="round"/>
<path d="M67.875 39.625V24.25L82.875 54.25V69.625L67.875 39.625Z" fill="white" stroke="#1B96F3" stroke-width="3" stroke-linejoin="round"/>
<path d="M6.25 24.25V114L21.25 144V54.25L6.25 24.25Z" fill="#1B96F3" stroke="#1B96F3" stroke-width="3" stroke-linejoin="round"/>
<path d="M67.875 61.8125H23.5L38.5 91.8125H82.875L67.875 61.8125Z" fill="#1B96F3" stroke="#1B96F3" stroke-width="3" stroke-linejoin="round"/>
<path d="M23.5 76.4375H67.875L82.875 106.438H38.5L23.5 76.4375Z" fill="#1B96F3" stroke="#1B96F3" stroke-width="3" stroke-linejoin="round"/>
<path d="M23.5 98.625V76.4375L38.5 106.438V128.625L23.5 98.625Z" fill="white" stroke="#1B96F3" stroke-width="3" stroke-linejoin="round"/>
<path d="M67.875 76.4375V61.8125L82.875 91.8125V106.438L67.875 76.4375Z" fill="white" stroke="#1B96F3" stroke-width="3" stroke-linejoin="round"/>
<path d="M67.875 98.625H23.5L38.5 128.625H82.875L67.875 98.625Z" fill="#1B96F3" stroke="#1B96F3" stroke-width="3" stroke-linejoin="round"/>
<path d="M6.25 114H67.875L82.875 144H21.25L6.25 114Z" fill="#1B96F3" stroke="#1B96F3" stroke-width="3" stroke-linejoin="round"/>
<path d="M67.875 114V98.625L82.875 128.625V144L67.875 114Z" fill="white" stroke="#1B96F3" stroke-width="3" stroke-linejoin="round"/>
<path d="M23.5 39.625V61.8125H67.875V76.4375H23.5V98.625H67.875V114H6.25V24.25H67.875V39.625H23.5Z" fill="white"/>
<path d="M23.5 39.625V38.125H22V39.625H23.5ZM23.5 61.8125H22V63.3125H23.5V61.8125ZM67.875 61.8125H69.375V60.3125H67.875V61.8125ZM67.875 76.4375V77.9375H69.375V76.4375H67.875ZM23.5 76.4375V74.9375H22V76.4375H23.5ZM23.5 98.625H22V100.125H23.5V98.625ZM67.875 98.625H69.375V97.125H67.875V98.625ZM67.875 114V115.5H69.375V114H67.875ZM6.25 114H4.75V115.5H6.25V114ZM6.25 24.25V22.75H4.75V24.25H6.25ZM67.875 24.25H69.375V22.75H67.875V24.25ZM67.875 39.625V41.125H69.375V39.625H67.875ZM22 39.625V61.8125H25V39.625H22ZM23.5 63.3125H67.875V60.3125H23.5V63.3125ZM66.375 61.8125V76.4375H69.375V61.8125H66.375ZM67.875 74.9375H23.5V77.9375H67.875V74.9375ZM22 76.4375V98.625H25V76.4375H22ZM23.5 100.125H67.875V97.125H23.5V100.125ZM66.375 98.625V114H69.375V98.625H66.375ZM67.875 112.5H6.25V115.5H67.875V112.5ZM7.75 114V24.25H4.75V114H7.75ZM6.25 25.75H67.875V22.75H6.25V25.75ZM66.375 24.25V39.625H69.375V24.25H66.375ZM67.875 38.125H23.5V41.125H67.875V38.125Z" fill="#1B96F3"/>
<path d="M476.25 144H459V54.25H476.25L493.75 103.438L511.938 54.25H528.125V144H511.938V106.438L499.375 144H489.25L476.25 106.438V144Z" fill="#1B96F3" stroke="#1B96F3" stroke-width="3"/>
<path d="M543.125 24.25H526.938L511.938 54.25H528.125L543.125 24.25Z" fill="#1B96F3" stroke="#1B96F3" stroke-width="3" stroke-linejoin="round"/>
<path d="M491.25 24.25H474L459 54.25H476.25L491.25 24.25Z" fill="#1B96F3" stroke="#1B96F3" stroke-width="3" stroke-linejoin="round"/>
<path d="M526.938 24.25L508.75 73.4375L493.75 103.438L511.938 54.25L526.938 24.25Z" fill="#1B96F3" stroke="#1B96F3" stroke-width="3" stroke-linejoin="round"/>
<path d="M543.125 114V24.25L528.125 54.25V144L543.125 114Z" fill="#1B96F3" stroke="#1B96F3" stroke-width="3" stroke-linejoin="round"/>
<path d="M508.75 73.4375L491.25 24.25L476.25 54.25L493.75 103.438L508.75 73.4375Z" fill="#1B96F3" stroke="#1B96F3" stroke-width="3" stroke-linejoin="round"/>
<path d="M526.938 76.4375V114L511.938 144V106.438L526.938 76.4375Z" fill="white" stroke="#1B96F3" stroke-width="3" stroke-linejoin="round"/>
<path d="M474 24.25V114L459 144V54.25L474 24.25Z" fill="white" stroke="#1B96F3" stroke-width="3" stroke-linejoin="round"/>
<path d="M514.375 114L526.938 76.4375L511.938 106.438L499.375 144L514.375 114Z" fill="#1B96F3" stroke="#1B96F3" stroke-width="3" stroke-linejoin="round"/>
<path d="M491.25 76.4375L504.25 114L489.25 144L476.25 106.438L491.25 76.4375Z" fill="white" stroke="#1B96F3" stroke-width="3" stroke-linejoin="round"/>
<path d="M526.938 114H543.125L528.125 144H511.938L526.938 114Z" fill="#1B96F3" stroke="#1B96F3" stroke-width="3" stroke-linejoin="round"/>
<path d="M491.25 114V76.4375L476.25 106.438V144L491.25 114Z" fill="#1B96F3" stroke="#1B96F3" stroke-width="3" stroke-linejoin="round"/>
<path d="M504.25 114H514.375L499.375 144H489.25L504.25 114Z" fill="#1B96F3" stroke="#1B96F3" stroke-width="3" stroke-linejoin="round"/>
<path d="M474 114H491.25L476.25 144H459L474 114Z" fill="#1B96F3" stroke="#1B96F3" stroke-width="3" stroke-linejoin="round"/>
<path d="M491.25 114H474V24.25H491.25L508.75 73.4375L526.938 24.25H543.125V114H526.938V76.4375L514.375 114H504.25L491.25 76.4375V114Z" fill="white"/>
<path d="M491.25 114V115.5H492.75V114H491.25ZM474 114H472.5V115.5H474V114ZM474 24.25V22.75H472.5V24.25H474ZM491.25 24.25L492.663 23.7472L492.308 22.75H491.25V24.25ZM508.75 73.4375L507.337 73.9403L508.723 77.8361L510.157 73.9577L508.75 73.4375ZM526.938 24.25V22.75H525.893L525.531 23.7298L526.938 24.25ZM543.125 24.25H544.625V22.75H543.125V24.25ZM543.125 114V115.5H544.625V114H543.125ZM526.938 114H525.438V115.5H526.938V114ZM526.938 76.4375H528.438L525.515 75.9617L526.938 76.4375ZM514.375 114V115.5H515.455L515.798 114.476L514.375 114ZM504.25 114L502.832 114.491L503.182 115.5H504.25V114ZM491.25 76.4375L492.668 75.9469L489.75 76.4375H491.25ZM491.25 112.5H474V115.5H491.25V112.5ZM475.5 114V24.25H472.5V114H475.5ZM474 25.75H491.25V22.75H474V25.75ZM489.837 24.7528L507.337 73.9403L510.163 72.9347L492.663 23.7472L489.837 24.7528ZM510.157 73.9577L528.344 24.7702L525.531 23.7298L507.343 72.9173L510.157 73.9577ZM526.938 25.75H543.125V22.75H526.938V25.75ZM541.625 24.25V114H544.625V24.25H541.625ZM543.125 112.5H526.938V115.5H543.125V112.5ZM528.438 114V76.4375H525.438V114H528.438ZM525.515 75.9617L512.952 113.524L515.798 114.476L528.36 76.9133L525.515 75.9617ZM514.375 112.5H504.25V115.5H514.375V112.5ZM505.668 113.509L492.668 75.9469L489.832 76.9281L502.832 114.491L505.668 113.509ZM489.75 76.4375V114H492.75V76.4375H489.75Z" fill="#1B96F3"/>
<path d="M330.5 128.625H374.875V144H313.25V54.25H374.875V69.625H330.5V128.625Z" fill="#1B96F3" stroke="#1B96F3" stroke-width="3"/>
<path d="M379.875 24.25H318.25L313.25 54.25H374.875L379.875 24.25Z" fill="#1B96F3" stroke="#1B96F3" stroke-width="3" stroke-linejoin="round"/>
<path d="M379.875 39.625V24.25L374.875 54.25V69.625L379.875 39.625Z" fill="#1B96F3" stroke="#1B96F3" stroke-width="3" stroke-linejoin="round"/>
<path d="M335.5 39.625H379.875L374.875 69.625H330.5L335.5 39.625Z" fill="#1B96F3" stroke="#1B96F3" stroke-width="3" stroke-linejoin="round"/>
<path d="M335.5 98.625V39.625L330.5 69.625V128.625L335.5 98.625Z" fill="#1B96F3" stroke="#1B96F3" stroke-width="3" stroke-linejoin="round"/>
<path d="M318.25 24.25V114L313.25 144V54.25L318.25 24.25Z" fill="white" stroke="#1B96F3" stroke-width="3" stroke-linejoin="round"/>
<path d="M379.875 98.625H335.5L330.5 128.625H374.875L379.875 98.625Z" fill="#1B96F3" stroke="#1B96F3" stroke-width="3" stroke-linejoin="round"/>
<path d="M379.875 114V98.625L374.875 128.625V144L379.875 114Z" fill="#1B96F3" stroke="#1B96F3" stroke-width="3" stroke-linejoin="round"/>
<path d="M318.25 114H379.875L374.875 144H313.25L318.25 114Z" fill="#1B96F3" stroke="#1B96F3" stroke-width="3" stroke-linejoin="round"/>
<path d="M335.5 98.625H379.875V114H318.25V24.25H379.875V39.625H335.5V98.625Z" fill="white"/>
<path d="M335.5 98.625H334V100.125H335.5V98.625ZM379.875 98.625H381.375V97.125H379.875V98.625ZM379.875 114V115.5H381.375V114H379.875ZM318.25 114H316.75V115.5H318.25V114ZM318.25 24.25V22.75H316.75V24.25H318.25ZM379.875 24.25H381.375V22.75H379.875V24.25ZM379.875 39.625V41.125H381.375V39.625H379.875ZM335.5 39.625V38.125H334V39.625H335.5ZM335.5 100.125H379.875V97.125H335.5V100.125ZM378.375 98.625V114H381.375V98.625H378.375ZM379.875 112.5H318.25V115.5H379.875V112.5ZM319.75 114V24.25H316.75V114H319.75ZM318.25 25.75H379.875V22.75H318.25V25.75ZM378.375 24.25V39.625H381.375V24.25H378.375ZM379.875 38.125H335.5V41.125H379.875V38.125ZM334 39.625V98.625H337V39.625H334Z" fill="#1B96F3"/>
<path d="M240.25 106.438C240.25 106.438 240.25 93.3906 240.25 80.3438C240.25 67.2969 240.25 54.25 240.25 54.25H301.875C301.875 54.25 301.875 58.0938 301.875 61.9375C301.875 65.7812 301.875 69.625 301.875 69.625H257.5C257.5 69.625 257.5 75.1719 257.5 80.7188C257.5 86.2656 257.5 91.8125 257.5 91.8125H301.875C301.875 91.8125 301.875 104.859 301.875 117.906C301.875 130.953 301.875 144 301.875 144H240.25C240.25 144 240.25 140.156 240.25 136.312C240.25 132.469 240.25 128.625 240.25 128.625H285.688C285.688 128.625 285.688 123.078 285.688 117.531C285.688 111.984 285.688 106.438 285.688 106.438H240.25Z" fill="#1B96F3" stroke="#1B96F3" stroke-width="3"/>
<path d="M301.875 24.25H240.25V54.25H301.875V24.25Z" fill="#1B96F3" stroke="#1B96F3" stroke-width="3" stroke-linejoin="round"/>
<path d="M301.875 24.25C301.875 24.25 301.875 28.0938 301.875 31.9375V61.9375C301.875 58.0938 301.875 54.25 301.875 54.25V24.25Z" stroke="#1B96F3" stroke-width="3" stroke-linejoin="round"/>
<path d="M301.875 31.9375C301.875 35.7812 301.875 39.625 301.875 39.625V69.625C301.875 69.625 301.875 65.7812 301.875 61.9375V31.9375Z" stroke="#1B96F3" stroke-width="3" stroke-linejoin="round"/>
<path d="M240.25 50.3438C240.25 37.2969 240.25 24.25 240.25 24.25V54.25C240.25 54.25 240.25 67.2969 240.25 80.3438V50.3438Z" stroke="#1B96F3" stroke-width="3" stroke-linejoin="round"/>
<path d="M257.5 39.625H301.875V69.625H257.5V39.625Z" fill="#1B96F3" stroke="#1B96F3" stroke-width="3" stroke-linejoin="round"/>
<path d="M257.5 39.625C257.5 39.625 257.5 45.1719 257.5 50.7188V80.7188C257.5 75.1719 257.5 69.625 257.5 69.625V39.625Z" stroke="#1B96F3" stroke-width="3" stroke-linejoin="round"/>
<path d="M257.5 50.7188C257.5 56.2656 257.5 61.8125 257.5 61.8125V91.8125C257.5 91.8125 257.5 86.2656 257.5 80.7188V50.7188Z" stroke="#1B96F3" stroke-width="3" stroke-linejoin="round"/>
<path d="M301.875 61.8125H257.5V91.8125H301.875V61.8125Z" fill="#1B96F3" stroke="#1B96F3" stroke-width="3" stroke-linejoin="round"/>
<path d="M240.25 76.4375C240.25 76.4375 240.25 63.3906 240.25 50.3438V80.3438C240.25 93.3906 240.25 106.438 240.25 106.438V76.4375Z" stroke="#1B96F3" stroke-width="3" stroke-linejoin="round"/>
<path d="M301.875 61.8125C301.875 61.8125 301.875 74.8594 301.875 87.9062V117.906C301.875 104.859 301.875 91.8125 301.875 91.8125V61.8125Z" stroke="#1B96F3" stroke-width="3" stroke-linejoin="round"/>
<path d="M240.25 76.4375H285.688V106.438H240.25V76.4375Z" fill="#1B96F3" stroke="#1B96F3" stroke-width="3" stroke-linejoin="round"/>
<path d="M285.688 87.5312C285.688 81.9844 285.688 76.4375 285.688 76.4375V106.438C285.688 106.438 285.688 111.984 285.688 117.531V87.5312Z" stroke="#1B96F3" stroke-width="3" stroke-linejoin="round"/>
<path d="M285.688 98.625C285.688 98.625 285.688 93.0781 285.688 87.5312V117.531C285.688 123.078 285.688 128.625 285.688 128.625V98.625Z" stroke="#1B96F3" stroke-width="3" stroke-linejoin="round"/>
<path d="M285.688 98.625H240.25V128.625H285.688V98.625Z" fill="#1B96F3" stroke="#1B96F3" stroke-width="3" stroke-linejoin="round"/>
<path d="M301.875 87.9062C301.875 100.953 301.875 114 301.875 114V144C301.875 144 301.875 130.953 301.875 117.906V87.9062Z" stroke="#1B96F3" stroke-width="3" stroke-linejoin="round"/>
<path d="M240.25 106.312C240.25 102.469 240.25 98.625 240.25 98.625V128.625C240.25 128.625 240.25 132.469 240.25 136.312V106.312Z" stroke="#1B96F3" stroke-width="3" stroke-linejoin="round"/>
<path d="M240.25 114C240.25 114 240.25 110.156 240.25 106.312V136.312C240.25 140.156 240.25 144 240.25 144V114Z" stroke="#1B96F3" stroke-width="3" stroke-linejoin="round"/>
<path d="M240.25 114H301.875V144H240.25V114Z" fill="#1B96F3" stroke="#1B96F3" stroke-width="3" stroke-linejoin="round"/>
<path d="M240.25 76.4375V24.25H301.875V39.625H257.5V61.8125H301.875V114H240.25V98.625H285.688V76.4375H240.25Z" fill="white"/>
<path d="M240.25 76.4375H238.75V77.9375H240.25V76.4375ZM240.25 24.25V22.75H238.75V24.25H240.25ZM301.875 24.25H303.375V22.75H301.875V24.25ZM301.875 39.625V41.125H303.375V39.625H301.875ZM257.5 39.625V38.125H256V39.625H257.5ZM257.5 61.8125H256V63.3125H257.5V61.8125ZM301.875 61.8125H303.375V60.3125H301.875V61.8125ZM301.875 114V115.5H303.375V114H301.875ZM240.25 114H238.75V115.5H240.25V114ZM240.25 98.625V97.125H238.75V98.625H240.25ZM285.688 98.625V100.125H287.188V98.625H285.688ZM285.688 76.4375H287.188V74.9375H285.688V76.4375ZM241.75 76.4375V24.25H238.75V76.4375H241.75ZM240.25 25.75H301.875V22.75H240.25V25.75ZM300.375 24.25V39.625H303.375V24.25H300.375ZM301.875 38.125H257.5V41.125H301.875V38.125ZM256 39.625V61.8125H259V39.625H256ZM257.5 63.3125H301.875V60.3125H257.5V63.3125ZM300.375 61.8125V114H303.375V61.8125H300.375ZM301.875 112.5H240.25V115.5H301.875V112.5ZM241.75 114V98.625H238.75V114H241.75ZM240.25 100.125H285.688V97.125H240.25V100.125ZM287.188 98.625V76.4375H284.188V98.625H287.188ZM285.688 74.9375H240.25V77.9375H285.688V74.9375Z" fill="#1B96F3"/>
<path d="M447.625 54.25V144H386V54.25H447.625ZM431.438 69.625H403.25V128.625H431.438V69.625Z" fill="#1B96F3" stroke="#1B96F3" stroke-width="3"/>
<path d="M457.625 24.25H396L386 54.25H447.625L457.625 24.25Z" fill="#1B96F3" stroke="#1B96F3" stroke-width="3" stroke-linejoin="round"/>
<path d="M413.25 39.625H441.438L431.438 69.625H403.25L413.25 39.625Z" fill="#1B96F3" stroke="#1B96F3" stroke-width="3" stroke-linejoin="round"/>
<path d="M457.625 114V24.25L447.625 54.25V144L457.625 114Z" fill="#1B96F3" stroke="#1B96F3" stroke-width="3" stroke-linejoin="round"/>
<path d="M441.438 39.625V98.625L431.438 128.625V69.625L441.438 39.625Z" fill="white" stroke="#1B96F3" stroke-width="3" stroke-linejoin="round"/>
<path d="M413.25 98.625V39.625L403.25 69.625V128.625L413.25 98.625Z" fill="#1B96F3" stroke="#1B96F3" stroke-width="3" stroke-linejoin="round"/>
<path d="M396 24.25V114L386 144V54.25L396 24.25Z" fill="white" stroke="#1B96F3" stroke-width="3" stroke-linejoin="round"/>
<path d="M441.438 98.625H413.25L403.25 128.625H431.438L441.438 98.625Z" fill="#1B96F3" stroke="#1B96F3" stroke-width="3" stroke-linejoin="round"/>
<path d="M396 114H457.625L447.625 144H386L396 114Z" fill="#1B96F3" stroke="#1B96F3" stroke-width="3" stroke-linejoin="round"/>
<path d="M457.625 24.25V114H396V24.25H457.625ZM441.438 39.625H413.25V98.625H441.438V39.625Z" fill="white"/>
<path d="M457.625 24.25H459.125V22.75H457.625V24.25ZM457.625 114V115.5H459.125V114H457.625ZM396 114H394.5V115.5H396V114ZM396 24.25V22.75H394.5V24.25H396ZM441.438 39.625H442.938V38.125H441.438V39.625ZM413.25 39.625V38.125H411.75V39.625H413.25ZM413.25 98.625H411.75V100.125H413.25V98.625ZM441.438 98.625V100.125H442.938V98.625H441.438ZM456.125 24.25V114H459.125V24.25H456.125ZM457.625 112.5H396V115.5H457.625V112.5ZM397.5 114V24.25H394.5V114H397.5ZM396 25.75H457.625V22.75H396V25.75ZM441.438 38.125H413.25V41.125H441.438V38.125ZM411.75 39.625V98.625H414.75V39.625H411.75ZM413.25 100.125H441.438V97.125H413.25V100.125ZM442.938 98.625V39.625H439.938V98.625H442.938Z" fill="#1B96F3"/>
<path d="M184.5 69.625V91.8125H228.875V106.438H184.5V128.625H228.875V144H167.25V54.25H228.875V69.625H184.5Z" fill="#1B96F3" stroke="#1B96F3" stroke-width="3"/>
<path d="M223.875 24.25H162.25L167.25 54.25H228.875L223.875 24.25Z" fill="#1B96F3" stroke="#1B96F3" stroke-width="3" stroke-linejoin="round"/>
<path d="M223.875 39.625V24.25L228.875 54.25V69.625L223.875 39.625Z" fill="white" stroke="#1B96F3" stroke-width="3" stroke-linejoin="round"/>
<path d="M179.5 39.625H223.875L228.875 69.625H184.5L179.5 39.625Z" fill="#1B96F3" stroke="#1B96F3" stroke-width="3" stroke-linejoin="round"/>
<path d="M179.5 61.8125V39.625L184.5 69.625V91.8125L179.5 61.8125Z" fill="white" stroke="#1B96F3" stroke-width="3" stroke-linejoin="round"/>
<path d="M223.875 61.8125H179.5L184.5 91.8125H228.875L223.875 61.8125Z" fill="#1B96F3" stroke="#1B96F3" stroke-width="3" stroke-linejoin="round"/>
<path d="M162.25 24.25V114L167.25 144V54.25L162.25 24.25Z" fill="#1B96F3" stroke="#1B96F3" stroke-width="3" stroke-linejoin="round"/>
<path d="M223.875 76.4375V61.8125L228.875 91.8125V106.438L223.875 76.4375Z" fill="white" stroke="#1B96F3" stroke-width="3" stroke-linejoin="round"/>
<path d="M179.5 76.4375H223.875L228.875 106.438H184.5L179.5 76.4375Z" fill="#1B96F3" stroke="#1B96F3" stroke-width="3" stroke-linejoin="round"/>
<path d="M179.5 98.625V76.4375L184.5 106.438V128.625L179.5 98.625Z" fill="white" stroke="#1B96F3" stroke-width="3" stroke-linejoin="round"/>
<path d="M223.875 98.625H179.5L184.5 128.625H228.875L223.875 98.625Z" fill="#1B96F3" stroke="#1B96F3" stroke-width="3" stroke-linejoin="round"/>
<path d="M223.875 114V98.625L228.875 128.625V144L223.875 114Z" fill="white" stroke="#1B96F3" stroke-width="3" stroke-linejoin="round"/>
<path d="M162.25 114H223.875L228.875 144H167.25L162.25 114Z" fill="#1B96F3" stroke="#1B96F3" stroke-width="3" stroke-linejoin="round"/>
<path d="M179.5 39.625V61.8125H223.875V76.4375H179.5V98.625H223.875V114H162.25V24.25H223.875V39.625H179.5Z" fill="white"/>
<path d="M179.5 39.625V38.125H178V39.625H179.5ZM179.5 61.8125H178V63.3125H179.5V61.8125ZM223.875 61.8125H225.375V60.3125H223.875V61.8125ZM223.875 76.4375V77.9375H225.375V76.4375H223.875ZM179.5 76.4375V74.9375H178V76.4375H179.5ZM179.5 98.625H178V100.125H179.5V98.625ZM223.875 98.625H225.375V97.125H223.875V98.625ZM223.875 114V115.5H225.375V114H223.875ZM162.25 114H160.75V115.5H162.25V114ZM162.25 24.25V22.75H160.75V24.25H162.25ZM223.875 24.25H225.375V22.75H223.875V24.25ZM223.875 39.625V41.125H225.375V39.625H223.875ZM178 39.625V61.8125H181V39.625H178ZM179.5 63.3125H223.875V60.3125H179.5V63.3125ZM222.375 61.8125V76.4375H225.375V61.8125H222.375ZM223.875 74.9375H179.5V77.9375H223.875V74.9375ZM178 76.4375V98.625H181V76.4375H178ZM179.5 100.125H223.875V97.125H179.5V100.125ZM222.375 98.625V114H225.375V98.625H222.375ZM223.875 112.5H162.25V115.5H223.875V112.5ZM163.75 114V24.25H160.75V114H163.75ZM162.25 25.75H223.875V22.75H162.25V25.75ZM222.375 24.25V39.625H225.375V24.25H222.375ZM223.875 38.125H179.5V41.125H223.875V38.125Z" fill="#1B96F3"/>
<path d="M111.5 69.625V91.8125H139.688V69.625H111.5ZM94.25 144V54.25H155.875V106.438H134.812L155.875 144H139.688L117.562 106.438H111.5V144H94.25Z" fill="#1B96F3" stroke="#1B96F3" stroke-width="3"/>
<path d="M145.875 24.25H84.25L94.25 54.25H155.875L145.875 24.25Z" fill="#1B96F3" stroke="#1B96F3" stroke-width="3" stroke-linejoin="round"/>
<path d="M101.5 39.625H129.688L139.688 69.625H111.5L101.5 39.625Z" fill="#1B96F3" stroke="#1B96F3" stroke-width="3" stroke-linejoin="round"/>
<path d="M101.5 61.8125V39.625L111.5 69.625V91.8125L101.5 61.8125Z" fill="white" stroke="#1B96F3" stroke-width="3" stroke-linejoin="round"/>
<path d="M129.688 39.625V61.8125L139.688 91.8125V69.625L129.688 39.625Z" fill="#1B96F3" stroke="#1B96F3" stroke-width="3" stroke-linejoin="round"/>
<path d="M84.25 24.25V114L94.25 144V54.25L84.25 24.25Z" fill="#1B96F3" stroke="#1B96F3" stroke-width="3" stroke-linejoin="round"/>
<path d="M145.875 76.4375V24.25L155.875 54.25V106.438L145.875 76.4375Z" fill="white" stroke="#1B96F3" stroke-width="3" stroke-linejoin="round"/>
<path d="M129.688 61.8125H101.5L111.5 91.8125H139.688L129.688 61.8125Z" fill="#1B96F3" stroke="#1B96F3" stroke-width="3" stroke-linejoin="round"/>
<path d="M101.5 76.4375H107.562L117.562 106.438H111.5L101.5 76.4375Z" fill="#1B96F3" stroke="#1B96F3" stroke-width="3" stroke-linejoin="round"/>
<path d="M124.812 76.4375H145.875L155.875 106.438H134.812L124.812 76.4375Z" fill="#1B96F3" stroke="#1B96F3" stroke-width="3" stroke-linejoin="round"/>
<path d="M101.5 114V76.4375L111.5 106.438V144L101.5 114Z" fill="white" stroke="#1B96F3" stroke-width="3" stroke-linejoin="round"/>
<path d="M107.562 76.4375L129.688 114L139.688 144L117.562 106.438L107.562 76.4375Z" fill="#1B96F3" stroke="#1B96F3" stroke-width="3" stroke-linejoin="round"/>
<path d="M145.875 114L124.812 76.4375L134.812 106.438L155.875 144L145.875 114Z" fill="#1B96F3" stroke="#1B96F3" stroke-width="3" stroke-linejoin="round"/>
<path d="M84.25 114H101.5L111.5 144H94.25L84.25 114Z" fill="#1B96F3" stroke="#1B96F3" stroke-width="3" stroke-linejoin="round"/>
<path d="M129.688 114H145.875L155.875 144H139.688L129.688 114Z" fill="#1B96F3" stroke="#1B96F3" stroke-width="3" stroke-linejoin="round"/>
<path d="M101.5 39.625V61.8125H129.688V39.625H101.5ZM84.25 114V24.25H145.875V76.4375H124.812L145.875 114H129.688L107.562 76.4375H101.5V114H84.25Z" fill="white"/>
<path d="M101.5 39.625V38.125H100V39.625H101.5ZM101.5 61.8125H100V63.3125H101.5V61.8125ZM129.688 61.8125V63.3125H131.188V61.8125H129.688ZM129.688 39.625H131.188V38.125H129.688V39.625ZM84.25 114H82.75V115.5H84.25V114ZM84.25 24.25V22.75H82.75V24.25H84.25ZM145.875 24.25H147.375V22.75H145.875V24.25ZM145.875 76.4375V77.9375H147.375V76.4375H145.875ZM124.812 76.4375V74.9375H122.252L123.504 77.1711L124.812 76.4375ZM145.875 114V115.5H148.436L147.183 113.266L145.875 114ZM129.688 114L128.395 114.761L128.83 115.5H129.688V114ZM107.562 76.4375L108.855 75.6762L108.42 74.9375H107.562V76.4375ZM101.5 76.4375V74.9375H100V76.4375H101.5ZM101.5 114V115.5H103V114H101.5ZM100 39.625V61.8125H103V39.625H100ZM101.5 63.3125H129.688V60.3125H101.5V63.3125ZM131.188 61.8125V39.625H128.188V61.8125H131.188ZM129.688 38.125H101.5V41.125H129.688V38.125ZM85.75 114V24.25H82.75V114H85.75ZM84.25 25.75H145.875V22.75H84.25V25.75ZM144.375 24.25V76.4375H147.375V24.25H144.375ZM145.875 74.9375H124.812V77.9375H145.875V74.9375ZM123.504 77.1711L144.567 114.734L147.183 113.266L126.121 75.7039L123.504 77.1711ZM145.875 112.5H129.688V115.5H145.875V112.5ZM130.98 113.239L108.855 75.6762L106.27 77.1988L128.395 114.761L130.98 113.239ZM107.562 74.9375H101.5V77.9375H107.562V74.9375ZM100 76.4375V114H103V76.4375H100ZM101.5 112.5H84.25V115.5H101.5V112.5Z" fill="#1B96F3"/>
</svg>
